
<svg xmlns="http://www.w3.org/2000/svg" enable-background="new 0 0 900 900" viewBox="36.849 147.501 826.101 604.972"><linearGradient id="a" x1="1238.122" x2="1289.366" y1="749.515" y2="747.194" gradientTransform="matrix(1.0215 .1178 -.4443 .912 -263.666 -280.35)" gradientUnits="userSpaceOnUse"><stop offset="0" stop-color="#f1eff6"/><stop offset="1" stop-color="#000082" stop-opacity="0"/></linearGradient><path fill="url(#a)" d="M700.4 545.2c-2.3-.2-4.5-.4-6.6-.5l-1.8 3.1-.4 4.8c1.7 1 3.2 2.3 4.4 4 1.7.3 3.1.5 4.1.6 12.9 1.4 24 2.4 24.3-4 .1-3.2-11.1-6.6-24-8z" opacity=".7"/><linearGradient id="b" x1="1126.683" x2="1177.926" y1="865.792" y2="863.471" gradientTransform="matrix(1.0215 .1178 -.4443 .912 -263.666 -280.35)" gradientUnits="userSpaceOnUse"><stop offset="0" stop-color="#f1eff6"/><stop offset="1" stop-color="#000082" stop-opacity="0"/></linearGradient><path fill="url(#b)" d="M534.9 638.2c-2.3-.2-4.5-.4-6.6-.5l-1.8 3.1-.4 4.8c1.7 1 3.2 2.3 4.4 4 1.7.3 3.1.5 4.1.6 12.9 1.4 24 2.4 24.3-4 .1-3.3-11.1-6.7-24-8z" opacity=".7"/><linearGradient id="c" x1="474.048" x2="492.089" y1="684.176" y2="684.176" gradientUnits="userSpaceOnUse"><stop offset="0" stop-color="#f1eff6"/><stop offset="1" stop-color="#b6bce1" stop-opacity="0"/></linearGradient><path fill="url(#c)" d="M489.4 682.3c3.5 1 3.6 2.7 0 3.8-3.5 1-9.2 1-12.8 0-3.5-1-3.6-2.7 0-3.8 3.6-1 9.3-1 12.8 0z"/><linearGradient id="d" x1="552.857" x2="573.202" y1="721.452" y2="721.452" gradientUnits="userSpaceOnUse"><stop offset="0" stop-color="#f1eff6"/><stop offset="1" stop-color="#b6bce1" stop-opacity="0"/></linearGradient><path fill="url(#d)" d="M570.2 719.1c4 1.3 4 3.4 0 4.6-4 1.3-10.4 1.3-14.4 0s-4-3.4-.1-4.6c4.1-1.2 10.5-1.2 14.5 0z"/><linearGradient id="e" x1="637.29" x2="657.635" y1="721.72" y2="721.72" gradientUnits="userSpaceOnUse"><stop offset="0" stop-color="#f1eff6"/><stop offset="1" stop-color="#b6bce1" stop-opacity="0"/></linearGradient><path fill="url(#e)" d="M654.6 719.4c4 1.3 4 3.4 0 4.6-4 1.3-10.4 1.3-14.4 0s-4-3.4-.1-4.6c4.1-1.3 10.5-1.3 14.5 0z"/><linearGradient id="f" x1="636.664" x2="657.01" y1="673.689" y2="673.689" gradientUnits="userSpaceOnUse"><stop offset="0" stop-color="#f1eff6"/><stop offset="1" stop-color="#b6bce1" stop-opacity="0"/></linearGradient><path fill="url(#f)" d="M654 671.4c4 1.3 4 3.4 0 4.6-4 1.3-10.4 1.3-14.4 0s-4-3.4-.1-4.6 10.5-1.3 14.5 0z"/><linearGradient id="g" x1="715.025" x2="735.37" y1="628.683" y2="628.683" gradientUnits="userSpaceOnUse"><stop offset="0" stop-color="#f1eff6"/><stop offset="1" stop-color="#b6bce1" stop-opacity="0"/></linearGradient><path fill="url(#g)" d="M732.4 626.4c4 1.3 4 3.4 0 4.6s-10.4 1.3-14.4 0-4-3.4-.1-4.6c4-1.3 10.5-1.3 14.5 0z"/><linearGradient id="h" x1="799.546" x2="819.891" y1="628.811" y2="628.811" gradientUnits="userSpaceOnUse"><stop offset="0" stop-color="#f1eff6"/><stop offset="1" stop-color="#b6bce1" stop-opacity="0"/></linearGradient><path fill="url(#h)" d="M816.9 626.5c4 1.3 4 3.4 0 4.6-4 1.3-10.4 1.3-14.4 0s-4-3.4-.1-4.6c4.1-1.3 10.5-1.3 14.5 0z"/><linearGradient id="i" x1="798.803" x2="819.149" y1="580.846" y2="580.846" gradientUnits="userSpaceOnUse"><stop offset="0" stop-color="#f1eff6"/><stop offset="1" stop-color="#b6bce1" stop-opacity="0"/></linearGradient><path fill="url(#i)" d="M816.1 578.5c4 1.3 4 3.4 0 4.6-4 1.3-10.4 1.3-14.4 0s-4-3.4-.1-4.6 10.6-1.3 14.5 0z"/><linearGradient id="j" x1="713.684" x2="734.029" y1="579.48" y2="579.48" gradientUnits="userSpaceOnUse"><stop offset="0" stop-color="#f1eff6"/><stop offset="1" stop-color="#b6bce1" stop-opacity="0"/></linearGradient><path fill="url(#j)" d="M731 577.2c4 1.3 4 3.4 0 4.6-4 1.3-10.4 1.3-14.4 0s-4-3.4-.1-4.6c4.1-1.3 10.5-1.3 14.5 0z"/><linearGradient id="k" x1="552.197" x2="572.543" y1="672.519" y2="672.519" gradientUnits="userSpaceOnUse"><stop offset="0" stop-color="#f1eff6"/><stop offset="1" stop-color="#b6bce1" stop-opacity="0"/></linearGradient><path fill="url(#k)" d="M569.5 670.2c4 1.3 4 3.4 0 4.6s-10.4 1.3-14.4 0-4-3.4-.1-4.6 10.6-1.3 14.5 0z"/><linearGradient id="l" x1="379.726" x2="399.587" y1="630.11" y2="630.11" gradientUnits="userSpaceOnUse"><stop offset="0" stop-color="#f1eff6"/><stop offset="1" stop-color="#b6bce1" stop-opacity="0"/></linearGradient><path fill="url(#l)" d="M396.7 628.2c3.9 1 3.9 2.7 0 3.8-3.9 1-10.1 1-14 0-3.9-1-3.9-2.7-.1-3.8 3.9-1 10.2-1 14.1 0z"/><path fill="#f8f9fe" d="M307.9 702.2c-17.7 10.3-46.6 10.3-64.5 0s-18-27-.2-37.3c17.8-10.3 46.6-10.3 64.5 0 17.8 10.3 17.9 27 .2 37.3z"/><linearGradient id="m" x1="409.916" x2="493.266" y1="381.172" y2="381.172" gradientUnits="userSpaceOnUse"><stop offset="0" stop-color="#f1eff6"/><stop offset="1" stop-color="#b6bce1" stop-opacity="0"/></linearGradient><path fill="url(#m)" d="M487.6 372.8c-12.7-3.6-31.6-4.4-46.9-2.4v21.4c15.5 2.1 34.4 1.3 47.1-2.3 16.2-4.6 16.1-12.1-.2-16.7z"/><path fill="#c9cee2" d="m462.6 369.4-1 5.2-2.1 10.7c-.1 1.9-1.4 3.7-3.9 5.1-5.2 3-13.7 3-19 0-2.5-1.4-3.8-3.3-3.9-5.1l-2.1-10.8-1-5h33z"/><path fill="#9ea9c9" d="m462.6 369.4-1 5.2c-.5.4-1.1.8-1.7 1.1-7.5 4.4-19.8 4.4-27.4 0-.7-.4-1.4-.9-2-1.3l-1-5h6.6c6.2 2.2 14 2.2 20.2 0h6.3z"/><path fill="#c9cee2" d="M465.6 357.8v8c0 2.9-1.9 5.7-5.6 7.9-7.5 4.4-19.8 4.4-27.4 0-3.8-2.2-5.7-5.1-5.7-8v-8l38.7.1z"/><path fill="#e3e7f0" d="M459.9 349.8c7.6 4.4 7.6 11.5.1 15.9s-19.8 4.4-27.4 0c-7.6-4.4-7.6-11.5-.1-15.9 7.6-4.4 19.8-4.4 27.4 0z"/><path fill="#c9cee2" d="M433.6 356.2c3.3-1.9 7.8-3 12.6-3s9.3 1.1 12.7 3c2 1.1 3.3 2.5 4.1 3.9.4-.8.6-1.5.6-2.3 0-2.2-1.7-4.4-4.7-6.1-3.4-1.9-7.8-3-12.7-3-4.8 0-9.3 1.1-12.6 3-3 1.7-4.6 3.9-4.6 6.1 0 .8.2 1.5.6 2.3.7-1.5 2.1-2.8 4-3.9z"/><path fill="#bf7d5a" d="M433.7 363.8c3.4 1.9 7.8 3 12.7 3 4.8 0 9.3-1.1 12.6-3 1.9-1.1 3.3-2.4 4-3.8-.7-1.4-2.1-2.7-4.1-3.9-3.4-1.9-7.8-3-12.7-3-4.8 0-9.3 1.1-12.6 3-1.9 1.1-3.3 2.4-4 3.8.7 1.4 2.1 2.8 4.1 3.9z"/><path fill="#dba660" d="M446.1 306.9s-2.7 14.3-3.6 16.6c-.9 2.3-.8 7.2 2.2 10.2 3 3 3.7 5.8 2.9 10.2-.8 4.4-5.6 16.5-5.6 16.5-.8 2.1 8.1 2.9 8.4-.4 0 0 2.4-10.7 2-15.9-.3-5.2-1.1-7.8-2.6-10.3s-5.2-1.9-3.3-9.7c1.9-7.8 4-18.7 4-19.9 0-1.3-4.4 2.7-4.4 2.7z"/><path fill="#78e75a" d="M478.3 281.9c-.5 4.6-4.9 4.6-8.3 3.8-2.9-.7-9.5-1.1-15.4 1.8 4.7-.4 10.6-.3 12.6 2.1 3.6 4.3 2.1 10.9-.6 9.8-2.7-1.2-10.8-7.1-15.8-7.1h-.4c1.1.7 2.4 2 3.4 4.1 2.5 5 1.9 12.1-3.5 12.3-5.3.2-8.5-1.8-8.5-7.2 0-3.2.1-6.1 1.2-8h-.2c-6.1.9-6.3 9.8-8.2 15.5-.7 2.1-1.9 3-3.2 3.3-2.4.5-4.7-1.1-5.2-3.5-1.7-9 7.6-16.4 12.1-19.4-8.2-1.7-15.2-6.5-15.1-9.7.1-3.4 4.8-4.4 8.8-2.4 3 1.6 8.6 6.5 11.2 8.8-1.7-3.2-3.6-7.8-3.3-12.4.6-8.4 3.5-17.4 8.2-15.9 4.4 1.5 3.5 4.9 2.5 7-1 2.1-4.6 5.1-5.4 10.4-.5 4 .1 10.4.4 13.4h.2c-.1-.1-.1-.2-.1-.2s.6-15.9 6.8-21.3 9.7 1.8 6.8 6c-2.5 3.6-8.1 8.6-10.3 14.1 0 0 11.4-11 22.8-9.9.3 0 7 0 6.5 4.6z"/><linearGradient id="n" x1="61.087" x2="144.437" y1="584.094" y2="584.094" gradientUnits="userSpaceOnUse"><stop offset="0" stop-color="#f1eff6"/><stop offset="1" stop-color="#b6bce1" stop-opacity="0"/></linearGradient><path fill="url(#n)" d="M138.7 575.8c-12.7-3.6-31.6-4.4-46.9-2.4v21.4c15.5 2.1 34.4 1.3 47.1-2.3 16.3-4.7 16.2-12.1-.2-16.7z"/><path fill="#c9cee2" d="m113.8 572.3-1 5.2-2.1 10.7c-.1 1.9-1.4 3.7-3.9 5.1-5.2 3-13.7 3-19 0-2.5-1.4-3.8-3.3-3.9-5.1l-2.1-10.8-1-5h33z"/><path fill="#9ea9c9" d="m113.8 572.3-1 5.2c-.5.4-1.1.8-1.7 1.1-7.5 4.4-19.8 4.4-27.4 0-.7-.4-1.4-.9-2-1.3l-1-5h6.6c6.2 2.2 14 2.2 20.2 0h6.3z"/><path fill="#c9cee2" d="M116.8 560.7v8c0 2.8-1.9 5.7-5.6 7.9-7.5 4.4-19.8 4.4-27.4 0-3.8-2.2-5.7-5.1-5.7-8v-8l38.7.1z"/><path fill="#e3e7f0" d="M111.1 552.7c7.6 4.4 7.6 11.5.1 15.9s-19.8 4.4-27.4 0c-7.6-4.4-7.6-11.5-.1-15.9s19.8-4.4 27.4 0z"/><path fill="#c9cee2" d="M84.7 559.1c3.3-1.9 7.8-3 12.6-3s9.3 1.1 12.7 3c2 1.1 3.3 2.5 4.1 3.9.4-.8.6-1.5.6-2.3 0-2.2-1.7-4.4-4.7-6.1-3.4-1.9-7.8-3-12.7-3-4.8 0-9.3 1.1-12.6 3-3 1.7-4.6 3.9-4.6 6.1 0 .8.2 1.5.6 2.3.8-1.5 2.1-2.8 4-3.9z"/><path fill="#bf7d5a" d="M84.8 566.7c3.4 1.9 7.8 3 12.7 3 4.8 0 9.3-1.1 12.6-3 1.9-1.1 3.3-2.4 4-3.8-.7-1.4-2.1-2.7-4.1-3.9-3.4-1.9-7.8-3-12.7-3-4.8 0-9.3 1.1-12.6 3-1.9 1.1-3.3 2.4-4 3.8.8 1.5 2.2 2.8 4.1 3.9z"/><path fill="#dba660" d="M97.2 509.8s-2.7 14.3-3.6 16.6c-.9 2.3-.8 7.2 2.2 10.2 3 3 3.7 5.8 2.9 10.2-.8 4.3-5.6 16.5-5.6 16.5-.8 2.1 8.1 2.9 8.4-.4 0 0 2.4-10.7 2-15.9-.3-5.2-1.1-7.8-2.6-10.3-1.6-2.6-5.2-1.9-3.3-9.7s4-18.7 4-19.9c.1-1.3-4.4 2.7-4.4 2.7z"/><path fill="#78e75a" d="M129.5 484.8c-.5 4.6-4.9 4.6-8.3 3.8-2.9-.7-9.5-1.1-15.4 1.8 4.7-.4 10.6-.3 12.6 2.1 3.6 4.3 2.1 10.9-.6 9.8-2.7-1.2-10.8-7.1-15.8-7.1h-.4c1.1.7 2.4 2 3.4 4.1 2.5 5 1.9 12.1-3.5 12.3-5.3.2-8.5-1.8-8.5-7.2 0-3.2.1-6.1 1.2-8H94c-6.1.9-6.3 9.8-8.2 15.5-.7 2.1-1.9 3-3.2 3.3-2.4.5-4.7-1.1-5.2-3.5-1.7-9 7.6-16.4 12.1-19.4-8.2-1.7-15.2-6.5-15.1-9.7.1-3.4 4.8-4.4 8.8-2.4 3 1.6 8.6 6.5 11.2 8.8-1.7-3.2-3.6-7.8-3.3-12.4.6-8.4 3.5-17.4 8.2-15.9 4.4 1.5 3.5 4.9 2.5 7-1 2.1-4.6 5.1-5.4 10.4-.5 4 .1 10.4.4 13.4h.2c-.1-.1-.1-.2-.1-.2s.6-15.9 6.8-21.3 9.7 1.8 6.8 6c-2.5 3.6-8.1 8.6-10.3 14.1 0 0 11.4-11 22.8-9.9.3 0 7 0 6.5 4.6z"/><path fill="#414f65" d="M414.7 413.3 133.1 575.8l-2.7-1.6-.7-236.6L411.3 175l2.7 1.6z"/><path fill="#111d33" d="m133.1 575.8-2.7-1.6-.7-236.6 2.8 1.6z"/><path fill="#414f65" d="m132.5 339.2-2.8-1.6L411.3 175l2.7 1.6z"/><path fill="#1d2943" d="m414 176.6.7 236.7-281.6 162.5-.6-236.6z"/><path fill="#fff" d="M138.5 342.6 408 187.1l.6 222.7-269.4 155.5z"/><path fill="#6bb4f9" d="m193.2 362.5.1 34.3-43.9 25.4-.1-34.3z"/><path fill="#e3e7f0" d="m193.1 320 .1 34.2-44 25.4-.1-34.2zM244.3 375.6l.1 34.3-44 25.4-.1-34.3zM244.2 333.1l.1 34.3-44 25.4-.1-34.3z"/><path fill="#b0b8cf" d="m244.1 290.5.1 34.3-44 25.4-.1-34.3z"/><path fill="#e3e7f0" d="m295.5 431.3.1 34.3-44 25.4-.1-34.3z"/><path fill="#95d895" d="m295.4 388.8.1 34.3-44 25.4-.1-34.3z"/><path fill="#fe90a9" d="m295.3 346.2.1 34.3-44 25.4-.1-34.3z"/><path fill="#8fabfe" d="m295.2 303.7.1 34.3-44 25.4-.1-34.3z"/><path fill="#e3e7f0" d="m295 261.1.1 34.3-44 25.4-.1-34.3z"/><path fill="#95d895" d="m346.1 274.2.1 34.3-44 25.4-.1-34.3z"/><path fill="#e3e7f0" d="m346 231.7.1 34.3-44 25.4-.1-34.3z"/><path fill="#ffde9b" d="m397.1 244.8.1 34.3-44 25.4-.1-34.3z"/><path fill="#8fabfe" d="M397 202.3v34.3L353.1 262l-.1-34.3zM193.6 490.2l.1 34.2-44 25.4-.1-34.2z"/><path fill="#e3e7f0" d="m193.5 447.6.1 34.3-44 25.4-.1-34.3z"/><path fill="#ffde9b" d="m193.4 405.1.1 34.2-44 25.4-.1-34.2zM346.5 401.9l.1 34.3-44 25.4-.1-34.3z"/><path fill="#b0b8cf" d="m346.4 359.4.1 34.2-44 25.4-.1-34.2z"/><path fill="#e3e7f0" d="m346.2 316.8.1 34.3-44 25.4-.1-34.3z"/><path fill="#fe90a9" d="m397.2 287.4.1 34.3-44 25.4-.1-34.3z"/><path fill="#e3e7f0" d="m244.6 460.7.1 34.3-44 25.4-.1-34.3z"/><path fill="#fe90a9" d="m244.4 418.2.1 34.3-43.9 25.4-.1-34.3z"/><path fill="#e3e7f0" d="m397.3 329.9.1 34.3-44 25.4-.1-34.3z"/><path fill="#fe90a9" d="m397.4 372.5.1 34.3-44 25.4-.1-34.3z"/><path fill="#fff" d="m215.9 311.4.1 11.8 10.4-6v-6.3l12.6-7.3.1 19-33.9 19.5v-12.6l3.9-2.3-.1-11.8zM318.2 380.7v11.8l10.4-6v-6.4l12.7-7.3v19.1l-33.8 19.5v-12.7l3.8-2.2v-11.8zM388.9 210.7v11.8l4.1-2.4v12.7l-36 20.8v-19l13.5-7.8v6.3l11-6.4v-11.8zM342.5 280.6l.1 25.8-16.5 9.4v-8.5l5.1-3v-8.6l3.9-2.2-.1-8.6zM313.2 297.5l.1 8.6 3.8-2.2v8.6l5.1-3 .1 8.6-16.5 9.4v-25.7zM393.6 294.7v25.7l-16.4 9.5v-8.6l5.1-2.9v-8.6l3.8-2.2V299zM364.3 311.6v8.6l3.9-2.3v8.6l5.1-2.9.1 8.5-16.5 9.5v-25.7zM169.7 424.6l.1 8.2 8.4-4.9v8.3l11.3-6.5v8.2l-36.1 20.9-.1-24.8zM383.6 386.8l.1 8.2 4.2-2.4v8.3l5.6-3.3.1 8.3-36.2 20.8v-8.2l5.6-3.3V407l4.2-2.5v-8.2zM273.3 403c1.9-1.1 3.4-.2 3.4 2s-1.5 4.8-3.4 5.9c-1.9 1.1-3.4.2-3.4-2 0-2.1 1.5-4.8 3.4-5.9z"/><path fill="#fff" d="M289.4 415.3v9.8l-31.9 18.4v-9.8l12.1-7 7.8-4.5z"/><path fill="#fff" d="M274.4 418c.1 0 .2 0 .2.1l-.1.7-.3 2c0 .2-.2.5-.4.6l-1.3.8c-.1.1-.2.1-.3 0l.1-.2c.2-.5.3-1 .2-1.4 0-.2-.1-.3-.2-.4-.1-.2-.4-.3-.6-.3 0-.1.3-.4.7-.7.2-.2.5-.4.8-.5.5-.5 1-.7 1.2-.7zm-.1.3c0-.2-.5 0-1.2.4-.3.2-.6.4-.8.5-.2.2-.3.3-.3.4h.3c.2-.1.5-.2.8-.4.6-.4 1.1-.8 1.2-.9"/><path fill="#fff" d="M277.9 410.6c1.7.7 4.4 3.5 1.9 9.2-.1.3-.3.5-.4.7l-.4.4c-.1.1-.3.1-.4.1h-.2c-.5-.1-.6-.8-.3-1.5 1.3-2.9.4-4.6-.4-5.5l-.2 7.6-7.9 4.6-.1-1.3c.6-.4 1.3-.9 1.8-1.4l.5-.5c.2.1.4.1.7-.1l.5-.3.4.3.4-.7c.5-.3.9-.9 1-1.5l.4-2.7v-.1c0-.5-.4-.6-.8-.5l-.2-2.7-1.6.9-.2 2.8c-.6.4-1.2 1-1.3 1.6h-.1c-.1.1-.2.2-.4.3-.4.4-.9.7-1.2 1l-.1-2.6c-.4.7-.7 1.3-.9 2-.5 1.1-.8 2-.8 2.4.1 0 .3 0 .8-.3.3-.2.6-.4 1.1-.8.3-.3.7-.6 1.2-1l.1-.1c.1-.1.2-.1.2-.2.1-.1.2-.1.3-.1h.3c.1 0 .1 0 .2.1s.2.2.2.4c.1.2 0 .5-.1.8-.1.3-.3.7-.6.9l-.1.1c-.6.5-1.1.9-1.7 1.4-.4.3-.8.6-1.2.8-1.2.7-2.1.9-2.6.2-.6-.9 0-2.8.8-4.8.7-1.7 1.7-3.4 2.3-4.4.1-.2.2-.4.4-.5v-.1c1.4-1.8 2.9-3.1 4.3-3.9 1.4-.8 2.9-1.2 4.3-1.1 0 .1 0 .1.1.1zm-3.8 3.6.5-2c-.4 0-.8.1-1.2.4-.4.2-.8.6-1.2 1l.5 1.5 1.4-.9M160.4 404.3c1.7-1 3.1-.2 3.1 1.7 0 .3 0 .6-.1.9-.3 1.8-1.5 3.6-3 4.4-1.5.8-2.7.4-3-1-.1-.2-.1-.5-.1-.8 0-1.9 1.4-4.2 3.1-5.2z"/><path fill="#fff" d="M179.8 393.1c1.7-1 3.1-.2 3.1 1.8 0 .3 0 .6-.1.9-.3 1.7-1.5 3.6-3 4.4-1.5.8-2.7.4-3-1-.1-.2-.1-.5-.1-.8.1-2 1.4-4.3 3.1-5.3z"/><path fill="#fff" d="M188.1 388c.1.1 1.8 3-3.6 6.1-.3.1-.5.3-.8.4 0-2.5-1.7-3.5-3.9-2.3-2.1 1.2-3.8 4.2-3.8 6.6l-11.7 6.8c0-2.4-1.8-3.4-3.9-2.2-2.1 1.2-3.8 4.2-3.8 6.6l-.3.2c-.2.1-3.5 1.8-1.5-2.6l3.2-10.2c.1-.5 2.7-9.3 11-14.1l1.8-.9c.5-.3 5.3-2.9 10.4-.7.2.1.5.2.7.3.8.4 1.7 1 2.6 1.7 0 0 .7-.1 1.4.2.2.1.4.2.7.4.8.4 1.4 1.5 1.5 3.7zm-13.6.3 5.9-3.4c-3.4-4-7.7-2.2-9.4-1.2v6.7l.7-.4v-.1c0-.9.6-2 1.4-2.4.8-.5 1.4-.2 1.4.8m-5-3.7c-.2 0-.4.1-.5.2-6.1 3.5-7.8 10.9-7.9 11.3l4.1-2.4v-.1c0-.9.6-2 1.4-2.4.8-.4 1.4-.1 1.4.8v.1l1.6-.9-.1-6.6"/><path fill="#fff" d="M173.1 383.9c.8-.4 1.4-.1 1.4.8s-.6 2-1.4 2.4c-.8.4-1.4.1-1.4-.8s.6-2 1.4-2.4z"/><ellipse cx="166.5" cy="389.3" fill="#fff" rx="2" ry="1.1" transform="rotate(-59.834 166.522 389.289)"/><path fill="#fff" d="M263.4 345.2v8l19.7-11.3v-8.1zM269.1 329.8c1.3-1.6 2.5-2.7 3.7-3.4 1.4-.8 2.7-1 4-.6.2.1.5.2.6.4.1.2 1.9 3.6 2 8.3l-2.3 1.3a16 16 0 0 0-.5-3.9l-.3 4.3-7.4 4.3-.3-4.2c-.3 1.5-.5 3.1-.6 4.7l-2.2 1.3c.1-3.6 1.3-8.1 2-10.3.3-.7.8-1.5 1.3-2.2zm2.5 6.8 1.1 1 1.1-2.3-.4-5.2v-.5l-1.5.8-.3 6.2m.1-7.5.2.6v.1l1.3-.8.3-1.2.2-.8c-.4 0-.7.1-1.1.4-.4.2-.8.5-1.1.9l.2.8m-2.6 3.7 2-1.2v-.5l-2 1.2v.5M272.6 319.6c-1.5.8-2.6 2.9-2.6 4.6 0 1.7 1.2 2.4 2.7 1.5 1.5-.8 2.6-2.9 2.6-4.6 0-1.7-1.2-2.3-2.7-1.5zM326.7 422.5c1.1-.6 2.2-.8 3.4-.6h.2c.2.1 1.1.3 2.3-.4.7-.4 1.5-1.2 2.3-2.6.1-.3.4-.5.6-.6.2-.1.3-.1.5-.1.3.1.4.6.1 1.2-1 2-2.3 3.2-3.4 3.9-.9.5-1.7.7-2.3.7l-.6 10.4c0 .1-.1.2-.1.3l1.2 7c.1.6-.3 1.5-.9 2-.1.1-.1.1-.2.1-.5.3-1 .1-1.1-.4l-1.3-7.4-.6.3-1.3 8.9c-.1.7-.6 1.4-1.1 1.7-.1 0-.1.1-.2.1-.6.2-1-.2-.9-1l1.2-8.4c-.1 0-.1 0-.1-.1l-.7-9.6c-.7.8-1.5 1.5-2.3 2-1.1.6-2.3.8-3.4 0-.3-.2-.2-.8.1-1.3l.3-.3.5 1.6c.1.2.3.3.5.1.1 0 .1-.1.2-.1.1-.1.3-.3.3-.5.1-.2.1-.4 0-.5l-.2-.5c.6.2 1.2 0 1.7-.3 1.1-.7 2.1-2 2.3-2.2l.1-.1c.7-1.7 1.8-2.7 2.9-3.3zM326.8 416.9c1.2-.7 2.1-.1 2.1 1.2s-.9 3-2.1 3.7c-1.2.7-2.1.1-2.1-1.2s.9-3.1 2.1-3.7z"/><path fill="#fff" d="M317 422.5h.2l1.7 5.5.4 1.1c0 .1 0 .2-.1.3h-.2l-.5-1.5-.7-2.2s-.1 0-.1.1c-.7.4-1.2 1.1-1.8 1.8-.6.7-1.1 1.4-1.8 1.8-.1.1-.2.1-.3.1l-.9-2.8c.1 0 .2-.1.3-.1.7-.4 1.2-1.1 1.8-1.8.6-.7 1.1-1.4 1.8-1.8 0 0 .1 0 .1-.1l-.1-.2c0 .1 0-.1.2-.2zM279.5 387.1v-11.8l-10.4 6v6.3l-12.6 7.3-.1-19 33.8-19.5.1 12.6-3.9 2.3v11.8zM224.1 446.4c.4-.2.7 0 .7.5s-.3 1.1-.7 1.3c-.4.2-.7 0-.7-.5.1-.5.4-1 .7-1.3zM222.5 448.5c.3-.2.5 0 .5.4s-.2.8-.5.9c-.3.2-.5 0-.5-.4 0-.3.3-.7.5-.9zM210.3 454.4c.4-.2.7 0 .7.5s-.3 1.1-.7 1.3c-.4.2-.7 0-.7-.5s.3-1 .7-1.3z"/><path fill="#fff" d="M216.9 457.1c1.8-1 3.6-2 5.4-2.9-1.8 1.2-3.6 2.2-5.4 3.3-1.8 1-3.6 2-5.4 2.9 1.8-1.2 3.6-2.2 5.4-3.3zM216.9 456.7c1.8-1 3.6-2 5.4-2.9-1.8 1.2-3.6 2.2-5.4 3.3-1.8 1-3.6 2-5.4 2.9 1.8-1.2 3.6-2.3 5.4-3.3zM216.9 456.2c1.8-1 3.6-2 5.4-2.9-1.8 1.2-3.6 2.2-5.4 3.3-1.8 1-3.6 2-5.4 2.9 1.8-1.2 3.6-2.3 5.4-3.3z"/><path fill="#fff" d="M211.9 454.7c.3-.2.5 0 .5.4s-.2.8-.5.9c-.3.2-.5 0-.5-.4 0-.3.2-.8.5-.9zM214.5 446c.2-.1.3 0 .3.2l.3 1.8-3.1 1.8.3-2.2c0-.2.2-.5.3-.5l1.9-1.1zM221.8 441.8c.2-.1.3 0 .3.2l.3 1.8-3.1 1.8.3-2.2c0-.2.2-.5.3-.5l1.9-1.1zM233.4 434.2c1.5-.9 2.7-.2 2.7 1.5v6.2c0 .6-.1 1.3-.4 1.9l.2 4.5 1.3 3.3c.3.6-.1 1.7-.8 2.4-.2.2-.3.3-.5.4-.5.3-1.1.2-1.3-.3l-1.4-3.5c0-.1-.1-.3-.1-.4l-.1-2.1-1 3.1v4.7c0 .8-.6 1.9-1.3 2.3-.7.4-1.3.1-1.3-.8v-5.1c0-.2 0-.5.1-.7l1.7-5.1c-.3-.3-.6-.8-.6-1.5v-2.1c2.1-1.7 3.3-3.7 3.3-3.8.5-.9.5-1.8 0-2.1-.3-.1-.6-.1-.9.1-.3.2-.7.5-.9 1 0 0-.5.8-1.4 1.7v-.9c0-1.8 1.2-3.8 2.7-4.7z"/><path fill="#fff" d="M233.1 437.5c.2-.1.4-.2.6-.1.4.2.4.8 0 1.4-.1.1-1.6 2.9-4.6 4.6-.5.3-1.1.6-1.7.8-.5.2-.8-.2-.7-.8.1-.5.5-1.1.9-1.3.1 0 .1-.1.2-.1.5-.2 1-.4 1.4-.6 2.2-1.3 3.3-3.1 3.4-3.2 0-.3.3-.5.5-.7z"/><path fill="#fff" d="m224.9 443.6-.1.1c0 .2.1.4.1.7 1.6.9 1.3 2.2 1.3 2.2v8.3c0 .3-.2.7-.4.8l-1.5.9c-.2.1-.4 0-.4-.3v-1.6l-.4.2c-1.5 1.3-3.5 2.6-5.4 3.7-3 1.7-5.9 3.1-7.4 3.7v1.5c0 .3-.2.7-.4.8l-1.5.9c-.2.1-.4 0-.4-.3v-8.5c0-.8 1.3-3.4 1.4-3.6l.1-.8c-.1 0-.1.1-.1.1-1 .6-1.7.5-1.7.5l-.1-.1c-.2-.3.1-.7.1-.8v-.1c.4-.6.8-1 1.2-1.2.3-.2.4-.2.4-.2v1.2l.4-.2c.1-.3.1-.5.2-.8 1-3.7 2-5.4 2.1-5.5.4-.8 2.3-1.9 3.9-2.9 1.6-.9 2.9-1.6 3-1.6.1 0 .1-.1.2-.1 1.1-.6 2.2-1.1 2.7-1.3.2-.1.3-.1.5 0 .6.4 1.2 1.5 1.6 2.4.2.4.4.9.5 1.3l.4-.2v-1.2s.2-.2.4-.3c.4-.2.9-.4 1.2-.2 0 0 .4.2 0 .9-.2.1-.9 1.1-1.9 1.6zm-14.3 7.1c-.1.5.4.3.4.3l12.1-7c.7-.4.7-.7.7-.7.2-1.6-1.5-3.3-1.6-3.4-1 .4-2.4 1.2-3.9 2.1-2.6 1.5-5.4 3.2-6.1 3.7-.1.1-.2.2-.3.4-.6 1.5-1.3 4.4-1.3 4.6m11.5 4.1c3.5-2.4 3.1-3.9 3.1-3.9-2.6 1.7-5.3 3.4-7.9 4.9-2.6 1.5-5.2 2.9-7.7 4.1-.3 2.2 2.2.9 2.7.6.1 0 .1-.1.1-.1 1.2-.7 2.7-1.5 4.1-2.4 2.8-1.6 5.4-3.1 5.6-3.2m3.4-8.1c0-.1 0-1.5-1-.9-.1.1-.2.1-.3.2-.1.1-1.4 1.3-2 2.5 0 .1-.8 1.2-.2 1.7.1.1.1.1.2 0 .1 0 .2-.1.4-.2.3-.2.8-.5 1.4-1 0 .1 1.4-1 1.5-2.3m-16.6 9.6c.1 1.1 1.5.6 1.6.6.6-.2 1-.4 1.4-.6.2-.1.3-.2.4-.3.1-.1.2-.2.2-.3.5-1.1-.2-1.4-.3-1.4-.6-.5-1.9-.2-2-.2-.1 0-.2.1-.3.1-1 .6-1 2-1 2.1M233.4 428.4c1.3-.7 2.3-.1 2.3 1.3 0 1.4-1 3.2-2.3 3.9-1.3.7-2.3.1-2.3-1.3 0-1.4 1-3.1 2.3-3.9zM190 496.5l.1 25.8-16.5 9.4v-8.5l5.1-3v-8.5l3.9-2.3-.1-8.6zM160.7 513.4l.1 8.6 3.8-2.2v8.6l5.1-3 .1 8.6-16.5 9.5v-25.8z"/><path fill="#1d2943" d="m659.7 577.4-.1 31.9-4.6 2.7-3.7-2.1c.1-43.7.1-28.6.1-31.9 0-1.2-.9-2.7-1.9-3.3l-31.2-18v28.7l-4.6 2.7-3.7-2.2.1-31.9c0-1.8.6-3 1.6-3.6.1-.1.1-.1.2-.1l4.4-2.6c1-.6 2.4-.5 4 .4l33.9 19.6c3 1.8 5.5 6.1 5.5 9.7z"/><path fill="#4c5c75" d="M611.5 550.4c1-.6 2.4-.5 4 .4l33.9 19.6c3.1 1.8 5.6 6.2 5.6 9.7l-.1 31.9 4.6-2.7.1-31.9c0-3.6-2.5-7.9-5.6-9.7l-33.9-19.6c-1.6-.9-3-1-4-.4l-4.6 2.7z"/><path fill="#1d2943" d="M615.5 550.8c-3.1-1.8-5.6-.4-5.7 3.2l-.1 31.9 3.7 2.2.1-31.9c0-1.2.8-1.7 1.9-1.1l33.9 19.6c1 .6 1.9 2.1 1.9 3.3l-.1 31.9 3.7 2.2.1-31.9c0-3.6-2.5-7.9-5.6-9.7l-33.8-19.7z"/><path fill="#4c5c75" d="M560.8 670c0 1.3-.5 2.2-1.2 2.6l-3.2 1.9-5.9-10 3.3-1.9c.8-.4 1.8-.4 3 .3 2.2 1.3 4 4.4 4 7.1z"/><path fill="#1d2943" d="M553.5 664.8c-2.3-1.3-4.1-.3-4.1 2.3 0 2.6 1.8 5.8 4.1 7.1 2.3 1.3 4.1.2 4.1-2.4s-1.8-5.7-4.1-7z"/><path fill="#dedffb" d="M553.5 666.7c-1.4-.8-2.5-.2-2.5 1.4 0 1.6 1.1 3.5 2.5 4.3 1.4.8 2.4.1 2.5-1.4-.1-1.7-1.1-3.5-2.5-4.3z"/><path fill="#111d33" d="M590 675.2v7.7l-3.2 1.9-36.1-20.8v-7.8l3.2-1.8z"/><path fill="#dedffb" d="m586.8 684.8 3.2-1.9v-7.7l-3.2 1.9z"/><path fill="#4c5c75" d="m586.8 677.1 3.2-1.9-36.1-20.8-3.2 1.8z"/><path fill="#111d33" d="M550.7 656.2v7.7l36.1 20.9v-7.7z"/><path fill="#4c5c75" d="M634.1 671c0 1.3.5 2.2 1.2 2.6l3.2 1.9c-.8-.4.6-1.1.6-2.4 0-2.6 3-3.8 5.2-5.1 1.2-.7-.8-3 0-2.6l-3.2-1.9c-.8-.4-1.8-.4-3 .3-2.3 1.5-4 4.6-4 7.2z"/><path fill="#1d2943" d="M641.4 665.8c2.3-1.3 4.1-.3 4.1 2.3 0 2.6-1.8 5.8-4.1 7.1-2.3 1.3-4.1.2-4.1-2.4 0-2.5 1.8-5.7 4.1-7z"/><path fill="#dedffb" d="M641.4 667.7c1.4-.8 2.5-.2 2.5 1.4 0 1.6-1.1 3.5-2.5 4.3-1.4.8-2.4.1-2.5-1.4 0-1.6 1.1-3.5 2.5-4.3z"/><path fill="#111d33" d="m645 664-36.1 20.8-3.2-1.9v-7.7l36.1-20.8 3.2 1.8z"/><path fill="#dedffb" d="m608.9 684.8-3.2-1.9v-7.7l3.2 1.9z"/><path fill="#4c5c75" d="m608.3 677.4-2.6-2.2 36.1-20.9 3.2 1.9c-10.1 8.7-23.1 15.7-36.7 21.2z"/><path fill="#111d33" d="M645 656.2v7.7l-36.1 20.9-.6-7.4z"/><path fill="#9ea9c9" d="M609.3 679.4v11.2c0 2-1.6 4.1-4.2 5.6-5.1 3-13.5 3-18.7 0-2.6-1.5-3.6-3.7-3.6-5.6v-11.2c0 2 2.2 2.5 4.8 4 5.2 3 12.5 2 17.6-1 2.6-1.5 4-1 4.1-3z"/><path fill="#c9cee2" d="M605.3 674c5.2 3 5.2 7.9.1 10.8-5.1 3-13.5 3-18.7 0-5.2-3-5.2-7.9-.1-10.8 5.2-3 13.6-3 18.7 0z"/><path fill="#1d2943" d="m602.7 627.8-.2 51.1c0 1-.7 2-2 2.7-2.6 1.5-6.9 1.5-9.5 0-1.3-.8-2-1.8-2-2.8l.2-51.1c0 1 .7 2 2 2.8 2.6 1.5 6.9 1.5 9.5 0 1.3-.7 2-1.7 2-2.7z"/><path fill="#c9cee2" d="M600.7 625c2.6 1.5 2.6 4 0 5.5s-6.9 1.5-9.5 0c-2.6-1.5-2.6-4 0-5.5s6.9-1.5 9.5 0z"/><path fill="#4c5c75" d="M645.6 719c0 1.3-.5 2.2-1.2 2.7l-3.2 1.9-5.8-10 3.2-1.9c.8-.4 1.8-.4 3 .3 2.2 1.3 4 4.4 4 7z"/><path fill="#1d2943" d="M638.3 713.8c-2.3-1.3-4.1-.3-4.1 2.3 0 2.6 1.8 5.8 4.1 7.1 2.3 1.3 4.1.2 4.1-2.4 0-2.5-1.8-5.6-4.1-7z"/><path fill="#dedffb" d="M638.3 715.7c-1.4-.8-2.5-.2-2.5 1.4 0 1.6 1.1 3.5 2.5 4.3 1.4.8 2.4.1 2.5-1.4-.1-1.6-1.1-3.5-2.5-4.3z"/><path fill="#111d33" d="m643.8 706.2-.1 7.8-3.2 1.8-36.1-20.8v-7.8l3.2-1.8z"/><path fill="#111d33" d="m640.5 715.8 3.2-1.8.1-7.8-3.2 1.9z"/><path fill="#4c5c75" d="m640.6 708.1 3.2-1.9-36.1-20.9-3.2 1.9c10.9 9.3 23 16.2 36.1 20.9z"/><path fill="#111d33" d="M604.4 687.2v7.8l36.1 20.8.1-7.7z"/><path fill="#4c5c75" d="M550.2 718.8c0 1.3.5 2.2 1.2 2.6l3.2 1.9c-.8-.4.7-1.4.7-2.7 0-2.6.4-3.8 2.7-5.1 1.2-.7 1.7-2.7 2.5-2.3l-3.2-1.9c-.8-.4-1.8-.4-3 .3-2.3 1.4-4.1 4.5-4.1 7.2z"/><path fill="#1d2943" d="M557.5 713.6c2.3-1.3 4.1-.3 4.1 2.3 0 2.6-1.8 5.8-4.1 7.1-2.3 1.3-4.1.2-4.1-2.4.1-2.6 1.9-5.7 4.1-7z"/><path fill="#dedffb" d="M557.6 715.5c1.4-.8 2.5-.2 2.5 1.4 0 1.6-1.1 3.5-2.5 4.3-1.4.8-2.4.1-2.5-1.4 0-1.7 1.1-3.5 2.5-4.3z"/><path fill="#111d33" d="m589.3 696.1-34.1 19.7-3.2-1.8v-7.8l34-19.6 3.2 1.8z"/><path fill="#111d33" d="M555.2 715.8 552 714v-7.7l3.2 1.9c2.9 1.3 2.4 4.1 0 7.6z"/><path fill="#4c5c75" d="m555.2 708.1-3.2-1.9 34.1-19.7 3.2 1.9c-10.2 11-21.7 16.9-34.1 19.7z"/><path fill="#111d33" d="m589.2 688.4.1 7.7-34.1 19.7v-7.7z"/><path fill="#1d2943" d="M540.3 647.8c-.6 1-1.6 2-2.8 2.2-7.1 1.3-11.2-2.4-11.2-2.4-15.1-3.8-22.1-12.6-18.3-15.7 3.7-3.1 17.7 2.3 17.7 2.3l14.6 5.2c2.5 1.2 1.2 6.2 0 8.4z"/><path fill="#f45170" d="m525.3 589.7-2.1 43.6c3.5 5 8.2 6.6 17 6l8.6-47.5-23.5-2.1z"/><path fill="#5ec363" d="M656 619.4c0 1.3-.9 2.6-2.6 3.6L602 652.7c-3.4 1.9-8.9 1.9-12.3 0l-51-29.7c-1.7-1-2.5-2.2-2.5-3.5l-.1-17.5 119.8-.1.1 17.5z"/><path fill="#72d561" d="M653.4 605.5 602 635.1c-3.4 2-8.9 2-12.3 0l-51-29.7c-3.4-1.9-3.4-5.1.1-7.1l51.4-29.6c3.4-2 8.9-2 12.3-.1l51 29.7c3.3 2 3.3 5.2-.1 7.2z"/><path fill="#f45170" d="M563.7 581c3.1 9 1 15.9-2.3 22.4l-36.2-13.7v-6c0-7.7 7.4-13.2 14.8-11l23.7 8.3z"/><path fill="#262e3f" d="m487.3 537-6.5 145.4c-.1 2.1-1.9 3.7-4 3.6-2-.1-3.6-1.7-3.6-3.7l-3.7-145.5c-.1-4.9 3.7-9 8.7-9.1 4.9-.1 9 3.7 9.1 8.7v.6zM778.4 425.4l2 65.9c.1 2 1.6 3.6 3.6 3.7 2.1.1 3.9-1.5 4-3.6l3.4-65.9h-13zM376.9 549l2 79.4c.1 2 1.6 3.6 3.6 3.7 2.1.1 3.9-1.5 4-3.6l3.4-79.4h-13z"/><path fill="#5094ff" d="M725.1 487.8c3.1 9 1 15.9-2.3 22.4l-36.2-13.7v-6c0-7.7 7.4-13.2 14.8-11l23.7 8.3z"/><path fill="#dedffb" d="M373.4 534.7v10.4c0 1.3.9 2.7 2.6 3.7l93.9 54.6c3.5 2.1 9.3 2.1 12.8 0l313-180.7c1.8-1 2.7-2.4 2.7-3.7v-10.4c0 1.4-.9 2.7-2.7 3.7L482.7 593c-3.6 2.1-9.3 2-12.8 0L376 538.4c-1.7-1.1-2.6-2.4-2.6-3.7z"/><path fill="#f3f1fc" d="M376.1 530.9c-3.6 2.1-3.6 5.4 0 7.4l93.9 54.6c3.5 2 9.3 2.1 12.8 0l313-180.7c3.5-2 3.6-5.4 0-7.4l-93.9-54.6c-3.5-2-9.3-2-12.8 0l-313 180.7z"/><g opacity=".7"><linearGradient id="o" x1="2297.682" x2="2379.493" y1="538.849" y2="538.849" gradientTransform="matrix(-1 0 0 1 2868.239 0)" gradientUnits="userSpaceOnUse"><stop offset="0" stop-color="#f1eff6"/><stop offset="1" stop-color="#000082" stop-opacity="0"/></linearGradient><path fill="url(#o)" d="M568.4 525.8c2.9 1.7 2.9 4.4 0 6l-50.7 29.4c-2.9 1.7-7.5 1.7-10.4 0l-16.4-9.5c-2.9-1.7-2.9-4.4 0-6l50.7-29.4c2.9-1.7 7.5-1.7 10.4 0l16.4 9.5z"/></g><path fill="#fff" d="M581.3 521.2z"/><path fill="#e9e7fc" d="M552.3 504.6c-.9-.5-1.6-.5-2.2-.2-71.5 41.4-72.6 42-72.7 42.1-.6.3-.9 1-.9 2 0 2 1.4 4.3 3.1 5.3.9.5 1.6.5 2.2.2l4.5-2.6 22.4 12.8 72.7-42.1v-.9l-29.1-16.6z"/><path fill="#f3f1fc" d="m478 547.5 72.7-42.1c-.4.2-.7.7-.7 1.5 0 1.4 1 3.2 2.3 3.9.6.4 1.2.4 1.6.2l-72.7 42c-.4.2-1 .2-1.6-.2-1.3-.7-2.3-2.5-2.3-3.9 0-.7.2-1.2.7-1.4z"/><path fill="#e9e7fc" d="M554.4 511.9 481.8 554c.6-.3.9-1 .9-2l72.7-42.1c-.1 1-.4 1.7-1 2z"/><path fill="#dedffb" d="m481.9 551.6 72.7-42.1.7.4-72.7 42.1z"/><path fill="#e9e7fc" d="m508.6 563.3 72.7-42.1v.9l-72.7 42.1z"/><path fill="#fff" d="m581.3 521.2-72.7 42.1-29-16.6c-.9-.5-1.6-.6-2.2-.2l72.7-42.1c.6-.3 1.3-.3 2.2.2l29 16.6z"/><path fill="#cacdea" d="M508.6 563.3v.9l-29-16.6c-1.3-.7-2.3-.1-2.3 1.3 0 1.4 1 3.2 2.3 3.9 1.3.7 2.3.1 2.3-1.3l.8.5c0 2-1.4 2.7-3.1 1.8-1.7-1-3.1-3.3-3.1-5.3s1.4-2.7 3.1-1.8l29 16.6z"/><path fill="#4c5c75" d="M501.9 539.1c-.1.1-.1.2 0 .3l3.2 1.9c.1.1.4.1.5 0l3.2-1.9c.1-.1.1-.2 0-.3l-3.2-1.9c-.1-.1-.4-.1-.5 0l-3.2 1.9zM498.6 537.2c-.1.1-.1.2 0 .3l.7.4c.1.1.4.1.5 0l3.2-1.9c.1-.1.1-.2 0-.3l-.7-.4c-.1-.1-.4-.1-.5 0l-3.2 1.9zM506.5 541.8c-.1.1-.1.2 0 .3l3.2 1.9c.1.1.4.1.5 0l3.2-1.9c.1-.1.1-.2 0-.3l-3.2-1.9c-.1-.1-.4-.1-.5 0l-3.2 1.9z"/><path fill="#4c5c75" d="M555.7 513.4c-.1.1-.1.2 0 .3l3.2 1.9c.1.1.4.1.5 0l3.2-1.9c.1-.1.1-.2 0-.3l-3.2-1.9c-.1-.1-.4-.1-.5 0l-3.2 1.9zM546.1 513.6c-.1.1-.1.2 0 .3l3.2 1.9c.1.1.4.1.5 0l8.1-4.7c.1-.1.1-.2 0-.3l-3.2-1.9c-.1-.1-.4-.1-.5 0l-8.1 4.7zM550.8 516.3c-.1.1-.1.2 0 .3l3.2 1.9c.1.1.4.1.5 0l3.2-1.9c.1-.1.1-.2 0-.3l-3.2-1.9c-.1-.1-.4-.1-.5 0l-3.2 1.9z"/><path fill="#4c5c75" d="M506.8 536.3c-.1.1-.1.2 0 .3l3.2 1.9c.1.1.4.1.5 0l3.2-1.9c.1-.1.1-.2 0-.3l-3.2-1.9c-.1-.1-.4-.1-.5 0l-3.2 1.9zM560.4 516.1c-.1.1-.1.2 0 .3l3.2 1.9c.1.1.4.1.5 0l3.2-1.9c.1-.1.1-.2 0-.3l-3.2-1.9c-.1-.1-.4-.1-.5 0l-3.2 1.9zM555.4 519c-.1.1-.1.2 0 .3l3.2 1.9c.1.1.4.1.5 0l3.2-1.9c.1-.1.1-.2 0-.3l-3.2-1.9c-.1-.1-.4-.1-.5 0l-3.2 1.9z"/><path fill="#4c5c75" d="M537.9 514.5c-.1.1-.1.2 0 .3l.7.4c.1.1.4.1.5 0l3.2-1.9c.1-.1.1-.2 0-.3l-.7-.4c-.1-.1-.4-.1-.5 0l-3.2 1.9zM533 517.3c-.1.1-.1.2 0 .3l.7.4c.1.1.4.1.5 0l3.2-1.9c.1-.1.1-.2 0-.3l-.7-.4c-.1-.1-.4-.1-.5 0l-3.2 1.9zM541.2 516.4c-.1.1-.1.2 0 .3l3.2 1.9c.1.1.4.1.5 0l3.2-1.9c.1-.1.1-.2 0-.3l-3.2-1.9c-.1-.1-.4-.1-.5 0l-3.2 1.9zM528.1 520.2c-.1.1-.1.2 0 .3l.7.4c.1.1.4.1.5 0l3.2-1.9c.1-.1.1-.2 0-.3l-.7-.4c-.1-.1-.4-.1-.5 0l-3.2 1.9zM536.3 519.2c-.1.1-.1.2 0 .3l3.2 1.9c.1.1.4.1.5 0l3.2-1.9c.1-.1.1-.2 0-.3l-3.2-1.9c-.1-.1-.4-.1-.5 0l-3.2 1.9zM550.5 521.8c-.1.1-.1.2 0 .3l3.2 1.9c.1.1.4.1.5 0l3.2-1.9c.1-.1.1-.2 0-.3l-3.2-1.9c-.1-.1-.4-.1-.5 0l-3.2 1.9zM540.9 521.9c-.1.1-.1.2 0 .3l3.2 1.9c.1.1.4.1.5 0l3.2-1.9c.1-.1.1-.2 0-.3l-3.2-1.9c-.1-.1-.4-.1-.5 0l-3.2 1.9zM531.4 522.1c-.1.1-.1.2 0 .3l3.2 1.9c.1.1.4.1.5 0l3.2-1.9c.1-.1.1-.2 0-.3l-3.2-1.9c-.1-.1-.4-.1-.5 0l-3.2 1.9zM555.2 524.5c-.1.1-.1.2 0 .3l3.2 1.9c.1.1.4.1.5 0l13-7.5c.1-.1.1-.2 0-.3l-3.2-1.9c-.1-.1-.4-.1-.5 0l-13 7.5zM545.6 524.6c-.1.1-.1.2 0 .3l3.2 1.9c.1.1.4.1.5 0l3.2-1.9c.1-.1.1-.2 0-.3l-3.2-1.9c-.1-.1-.4-.1-.5 0l-3.2 1.9zM536 524.8c-.1.1-.1.2 0 .3l3.2 1.9c.1.1.4.1.5 0l3.2-1.9c.1-.1.1-.2 0-.3l-3.2-1.9c-.1-.1-.4-.1-.5 0l-3.2 1.9zM550.3 527.4c-.1.1-.1.2 0 .3l3.2 1.9c.1.1.4.1.5 0l3.2-1.9c.1-.1.1-.2 0-.3l-3.2-1.9c-.1-.1-.4-.1-.5 0l-3.2 1.9zM540.7 527.5c-.1.1-.1.2 0 .3l3.2 1.9c.1.1.4.1.5 0l3.2-1.9c.1-.1.1-.2 0-.3l-3.2-1.9c-.1-.1-.4-.1-.5 0l-3.2 1.9zM531.1 527.6c-.1.1-.1.2 0 .3l3.2 1.9c.1.1.4.1.5 0l3.2-1.9c.1-.1.1-.2 0-.3l-3.2-1.9c-.1-.1-.4-.1-.5 0l-3.2 1.9zM545.4 530.2c-.1.1-.1.2 0 .3l3.2 1.9c.1.1.4.1.5 0l3.2-1.9c.1-.1.1-.2 0-.3l-3.2-1.9c-.1-.1-.4-.1-.5 0l-3.2 1.9zM526.2 530.5c-.1.1-.1.2 0 .3l3.2 1.9c.1.1.4.1.5 0l3.2-1.9c.1-.1.1-.2 0-.3l-3.2-1.9c-.1-.1-.4-.1-.5 0l-3.2 1.9zM521.3 533.3c-.1.1-.1.2 0 .3l3.2 1.9c.1.1.4.1.5 0l3.2-1.9c.1-.1.1-.2 0-.3l-3.2-1.9c-.1-.1-.4-.1-.5 0l-3.2 1.9zM525.9 536c-.1.1-.1.2 0 .3l3.2 1.9c.1.1.4.1.5 0l3.2-1.9c.1-.1.1-.2 0-.3l-3.2-1.9c-.1-.1-.4-.1-.5 0l-3.2 1.9zM516.4 536.1c-.1.1-.1.2 0 .3l3.2 1.9c.1.1.4.1.5 0l3.2-1.9c.1-.1.1-.2 0-.3l-3.2-1.9c-.1-.1-.4-.1-.5 0l-3.2 1.9zM521 538.8c-.1.1-.1.2 0 .3l3.2 1.9c.1.1.4.1.5 0l3.2-1.9c.1-.1.1-.2 0-.3l-3.2-1.9c-.1-.1-.4-.1-.5 0l-3.2 1.9zM511.5 539c-.1.1-.1.2 0 .3l3.2 1.9c.1.1.4.1.5 0l3.2-1.9c.1-.1.1-.2 0-.3l-3.2-1.9c-.1-.1-.4-.1-.5 0l-3.2 1.9zM516.1 541.7c-.1.1-.1.2 0 .3l3.2 1.9c.1.1.4.1.5 0l3.2-1.9c.1-.1.1-.2 0-.3l-3.2-1.9c-.1-.1-.4-.1-.5 0l-3.2 1.9zM520.8 544.4c-.1.1-.1.2 0 .3l3.2 1.9c.1.1.4.1.5 0l3.2-1.9c.1-.1.1-.2 0-.3l-3.2-1.9c-.1-.1-.4-.1-.5 0l-3.2 1.9zM511.2 544.5c-.1.1-.1.2 0 .3l3.2 1.9c.1.1.4.1.5 0l3.2-1.9c.1-.1.1-.2 0-.3l-3.2-1.9c-.1-.1-.4-.1-.5 0l-3.2 1.9zM515.9 547.2c-.1.1-.1.2 0 .3l3.2 1.9c.1.1.4.1.5 0l3.2-1.9c.1-.1.1-.2 0-.3l-3.2-1.9c-.1-.1-.4-.1-.5 0l-3.2 1.9zM520.5 549.9c-.1.1-.1.2 0 .3l3.2 1.9c.1.1.4.1.5 0l37.6-21.7c.1-.1.1-.2 0-.3l-3.2-1.9c-.1-.1-.4-.1-.5 0l-37.6 21.7z"/><path fill="#4c5c75" d="M515.6 552.8c-.1.1-.1.2 0 .3l3.2 1.9c.1.1.4.1.5 0l3.2-1.9c.1-.1.1-.2 0-.3l-3.2-1.9c-.1-.1-.4-.1-.5 0l-3.2 1.9zM510.9 550.1c-.1.1-.1.2 0 .3l3.2 1.9c.1.1.4.1.5 0l3.2-1.9c.1-.1.1-.2 0-.3l-3.2-1.9c-.1-.1-.4-.1-.5 0l-3.2 1.9z"/><path fill="#4c5c75" d="M501.6 544.6c-.1.1-.1.2 0 .3l3.2 1.9c.1.1.4.1.5 0l3.2-1.9c.1-.1.1-.2 0-.3l-3.2-1.9c-.1-.1-.4-.1-.5 0l-3.2 1.9zM492 544.8c-.1.1-.1.2 0 .3l3.2 1.9c.1.1.4.1.5 0l3.2-1.9c.1-.1.1-.2 0-.3l-3.2-1.9c-.1-.1-.4-.1-.5 0l-3.2 1.9zM491.8 550.3c-.1.1-.1.2 0 .3l3.2 1.9c.1.1.4.1.5 0l8.1-4.7c.1-.1.1-.2 0-.3l-3.2-1.9c-.1-.1-.4-.1-.5 0l-8.1 4.7zM496.5 553c-.1.1-.1.2 0 .3l3.2 1.9c.1.1.4.1.5 0l13.1-7.5c.1-.1.1-.2 0-.3l-3.2-1.9c-.1-.1-.4-.1-.5 0l-13.1 7.5zM510.7 555.6c-.1.1-.1.2 0 .3l3.2 1.9c.1.1.4.1.5 0l3.2-1.9c.1-.1.1-.2 0-.3l-3.2-1.9c-.1-.1-.4-.1-.5 0l-3.2 1.9zM501.1 555.7c-.1.1-.1.2 0 .3l3.2 1.9c.1.1.4.1.5 0l8.1-4.7c.1-.1.1-.2 0-.3l-3.2-1.9c-.1-.1-.4-.1-.5 0l-8.1 4.7zM505.8 558.4c-.1.1-.1.2 0 .3l3.2 1.9c.1.1.4.1.5 0l3.2-1.9c.1-.1.1-.2 0-.3l-3.2-1.9c-.1-.1-.4-.1-.5 0l-3.2 1.9z"/><path fill="#4c5c75" d="M497 541.9c-.1.1-.1.2 0 .3l3.2 1.9c.1.1.4.1.5 0l3.2-1.9c.1-.1.1-.2 0-.3l-3.2-1.9c-.1-.1-.4-.1-.5 0l-3.2 1.9zM493.7 540c-.1.1-.1.2 0 .3l.7.4c.1.1.4.1.5 0l3.2-1.9c.1-.1.1-.2 0-.3l-.7-.4c-.1-.1-.4-.1-.5 0l-3.2 1.9zM483.8 545.7c-.1.1-.1.2 0 .3l.7.4c.1.1.4.1.5 0l3.2-1.9c.1-.1.1-.2 0-.3l-.7-.4c-.1-.1-.4-.1-.5 0l-3.2 1.9zM488.7 542.9c-.1.1-.1.2 0 .3l.7.4c.1.1.4.1.5 0l3.2-1.9c.1-.1.1-.2 0-.3l-.7-.4c-.1-.1-.4-.1-.5 0l-3.2 1.9zM508.4 531.5c-.1.1-.1.2 0 .3l.7.4c.1.1.4.1.5 0l3.2-1.9c.1-.1.1-.2 0-.3l-.7-.4c-.1-.1-.4-.1-.5 0l-3.2 1.9zM503.5 534.3c-.1.1-.1.2 0 .3l.7.4c.1.1.4.1.5 0l3.2-1.9c.1-.1.1-.2 0-.3l-.7-.4c-.1-.1-.4-.1-.5 0l-3.2 1.9z"/><path fill="#4c5c75" d="M523.2 523c-.1.1-.1.2 0 .3l.7.4c.1.1.4.1.5 0l3.2-1.9c.1-.1.1-.2 0-.3l-.7-.4c-.1-.1-.4-.1-.5 0l-3.2 1.9zM518.2 525.8c-.1.1-.1.2 0 .3l.7.4c.1.1.4.1.5 0l3.2-1.9c.1-.1.1-.2 0-.3l-.7-.4c-.1-.1-.4-.1-.5 0l-3.2 1.9zM526.5 524.9c-.1.1-.1.2 0 .3l3.2 1.9c.1.1.4.1.5 0l3.2-1.9c.1-.1.1-.2 0-.3l-3.2-1.9c-.1-.1-.4-.1-.5 0l-3.2 1.9zM521.5 527.7c-.1.1-.1.2 0 .3l3.2 1.9c.1.1.4.1.5 0l3.2-1.9c.1-.1.1-.2 0-.3l-3.2-1.9c-.1-.1-.4-.1-.5 0l-3.2 1.9z"/><path fill="#4c5c75" d="M513.3 528.7c-.1.1-.1.2 0 .3l.7.4c.1.1.4.1.5 0l3.2-1.9c.1-.1.1-.2 0-.3l-.7-.4c-.1-.1-.4-.1-.5 0l-3.2 1.9zM542.8 511.6c-.1.1-.1.2 0 .3l.7.4c.1.1.4.1.5 0l3.2-1.9c.1-.1.1-.2 0-.3l-.7-.4c-.1-.1-.4-.1-.5 0l-3.2 1.9zM547.7 508.8c-.1.1-.1.2 0 .3l.7.4c.1.1.4.1.5 0l3.2-1.9c.1-.1.1-.2 0-.3l-.7-.4c-.1-.1-.4-.1-.5 0l-3.2 1.9zM487.1 547.6c-.1.1-.1.2 0 .3l3.2 1.9c.1.1.4.1.5 0l3.2-1.9c.1-.1.1-.2 0-.3l-3.2-1.9c-.1-.1-.4-.1-.5 0l-3.2 1.9zM516.6 530.6c-.1.1-.1.2 0 .3l3.2 1.9c.1.1.4.1.5 0l3.2-1.9c.1-.1.1-.2 0-.3l-3.2-1.9c-.1-.1-.4-.1-.5 0l-3.2 1.9zM511.7 533.4c-.1.1-.1.2 0 .3l3.2 1.9c.1.1.4.1.5 0l3.2-1.9c.1-.1.1-.2 0-.3l-3.2-1.9c-.1-.1-.4-.1-.5 0l-3.2 1.9zM545.9 519.1c-.1.1-.1.2 0 .3l3.2 1.9c.1.1.4.1.5 0l3.2-1.9c.1-.1.1-.2 0-.3l-3.2-1.9c-.1-.1-.4-.1-.5 0l-3.2 1.9zM530.9 533.2c-.1.1-.1.2 0 .3l3.2 1.9c.1.1.4.1.5 0l3.2-1.9c.1-.1.1-.2 0-.3l-3.2-1.9c-.1-.1-.4-.1-.5 0l-3.2 1.9zM530.6 538.7c-.1.1-.1.2 0 .3l3.2 1.9c.1.1.4.1.5 0l3.2-1.9c.1-.1.1-.2 0-.3l-3.2-1.9c-.1-.1-.4-.1-.5 0l-3.2 1.9z"/><path fill="#4c5c75" d="M540.4 533c-.1.1-.1.2 0 .3l3.2 1.9c.1.1.4.1.5 0l3.2-1.9c.1-.1.1-.2 0-.3l-3.2-1.9c-.1-.1-.4-.1-.5 0l-3.2 1.9zM535.5 535.9c-.1.1-.1.2 0 .3l3.2 1.9c.1.1.4.1.5 0l3.2-1.9c.1-.1.1-.2 0-.3l-3.2-1.9c-.1-.1-.4-.1-.5 0l-3.2 1.9z"/><path fill="#4c5c75" d="M535.8 530.3c-.1.1-.1.2 0 .3l3.2 1.9c.1.1.4.1.5 0l3.2-1.9c.1-.1.1-.2 0-.3l-3.2-1.9c-.1-.1-.4-.1-.5 0l-3.2 1.9zM525.7 541.5c-.1.1-.1.2 0 .3l3.2 1.9c.1.1.4.1.5 0l3.2-1.9c.1-.1.1-.2 0-.3l-3.2-1.9c-.1-.1-.4-.1-.5 0l-3.2 1.9zM559.8 527.2c-.1.1-.1.2 0 .3l3.2 1.9c.1.1.4.1.5 0l3.2-1.9c.1-.1.1-.2 0-.3l-3.2-1.9c-.1-.1-.4-.1-.5 0l-3.2 1.9zM564.8 524.4c-.1.1-.1.2 0 .3l3.2 1.9c.1.1.4.1.5 0l3.2-1.9c.1-.1.1-.2 0-.3l-3.2-1.9c-.1-.1-.4-.1-.5 0l-3.2 1.9zM569.7 521.6c-.1.1-.1.2 0 .3l3.2 1.9c.1.1.4.1.5 0l3.2-1.9c.1-.1.1-.2 0-.3l-3.2-1.9c-.1-.1-.4-.1-.5 0l-3.2 1.9zM582.2 514c-2.9.8-5.9 0-7.8-1.5-1.9-1.5-5.6-3.1-6.9-3.6-1.2-.5-1.2-1.5-1.2-1.5v-1c-.1-.9 0-2.9 2.5-4.3 2.8-1.5 6.5-.3 9.4 1 .1 0 .1.1.2.1 3.5 1.6 5.9 5.3 5.9 5.3s.7 1 .8 2c.2.8 0 2.7-2.9 3.5z"/><path fill="#4c5c75" d="M585 511.3c-.3 1-3.6 2.4-6 2.4s-3.9-1.9-5.2-4c-1.3-2.1-4.4-2.7-6-2.2-1.6.4-1.6-1-1.6-1 0-.9-.1-3 2.5-4.4l.6-.3c2.5-1 5.6-.1 8.8 1.3.1 0 .1.1.2.1 3.5 1.6 5.9 5.3 5.9 5.3s1.2 1.8.8 2.8z"/><path fill="#1d2943" d="M582.2 514c-2.9.8-5.9 0-7.8-1.5-1.9-1.5-5.6-3.1-6.9-3.7-1.2-.5-1.2-1.5-1.2-1.5v-1c0 .1 0 1.5 1.6 1.1 1.6-.4 4.7.2 6 2.2 1.3 2.1 2.8 4 5.2 4 2.4 0 5.7-1.4 6-2.4.1-.2.1-.5.1-.7.1.8-.1 2.7-3 3.5z"/><path fill="#9ea9c9" d="M578.2 503.2c-1.3-.1-2.5.5-3.4 1.2-.1 0-.1.1-.2.1-1.7 1.3-2.7 3-2.7 3-.4-.3-2.6-.6-3.7-.6s-1.4-.5-1.4-.5c-.9-1.3.5-2.8 1.4-3.6l.2-.2c.4-.3.6-.5.6-.5.2-.2.5-.3.7-.4 2.6-.7 5.6.1 8.5 1.5z"/><path fill="#4c5c75" d="M574.8 504.3c-.1 0-.1.1-.2.1-2-.9-4.8-1.5-6.3-1.7l.2-.2c1.6.4 4.3.9 6.3 1.8z"/><path fill="#4c5c75" d="m572.7 503.4-.5.5c-.2-.7-.9-1.4-1.5-1.6-.3-.1-.6 0-.8.2l.5-.5c.2-.2.4-.2.8-.2.6.2 1.3.9 1.5 1.6z"/><path fill="#111d33" d="m572.2 503.9-2.5-.5c-.2-.7.3-1.2.9-1 .7.1 1.4.8 1.6 1.5z"/><path fill="#f5c9c6" d="M573.9 522.7c6 3.6 7.1 7.3 3.5 9-4.1 2-8 1.2-12 .6-3.5-.5-7.2-.3-8.4-.9-.2-.1-.3-.2-.3-.3-.4-.9.3-2 4-1.5.2 0 .4-.1.2-.2-1-.5-2.7-1.2-4.3-2-3-1.6-6-3.5-4.2-4.8 1.3-1 5.3.8 7.1 1.8l1 .5c.2-.3 5.3-6.2 10.7-3.6 1 .4 1.9.9 2.7 1.4z"/><path fill="#fff" d="m580.8 526.4-1.4-.7-.5-.3h-.1c-1.3-.6-3.1-.4-4.9.7-2.8 1.6-5.5 3.6-6.8 6.7-.2.5 0 1 .4 1.2 1.9 1.1 7.1 4.2 13.2 7.8v-15.4z"/><path fill="#497bfe" d="m587.3 529.8-6.6-3.6-.5-.3h-.1c-1.4-.6-3.2-.4-5.2.7-2.9 1.7-5.8 3.8-7.1 7-.2.5 0 1 .5 1.3 2.5 1.5 10.5 6.2 19 11.3v-16.4z"/><path fill="#5094ff" d="M608.8 510.8s16-4.2 19.6-2.6c14 6.2 9.7 28.2 9.7 57.4 0 14.3-4 17.5-4 17.5s-25.8 40.7-72.6 20.4c4.6-7.4 2.7-24.4 1-41 0 0-3.7-21.4 3.8-26.8 7.5-5.5 19.6-14.4 19.6-14.4l22.9-10.5z"/><path fill="#f4d6d4" d="M617.1 493.4h-16.6V466h-14.2v-3.6c-.7.3-1.3.6-2 .9-3.3 1.6-7.3 3.3-10.5 3.6 0 0-.9 6.7 2.3 8.9-.2.4-3 9-.7 11.7 0 0 2 1.8-.1 6-2.1 4.1-2.1 17 8.1 18.2 0 0 3.7 3.9 2.5 9.5 0 0 16.7 1.6 22-10l-1.6-1.4c.1 0 7.2-7.9 10.8-16.4z"/><path fill="#f5c9c6" d="M607.9 511.2c-5.3 11.6-22 10-22 10 1.2-5.6-2.5-9.5-2.5-9.5s14.5 2.8 22.9-1.9l1.6 1.4z"/><path fill="#5094ff" d="M599.1 527.5c-13.7 3.4-20.6-1.4-20.6-1.4 2.7-1.9 5.3-3.6 7.3-4.8 14.4 0 18-3.9 22.1-10l7.2-1.9c0-.1 2.6 13.4-16 18.1z"/><path fill="#78e75a" d="m662 525.8-59.9 101.5-13-7.6c-1.1-.6-1.8-2-1.8-3.9l-.2-56.9c0-3.9 2.7-8.7 6.2-10.6l51.4-29.7c1.7-1 3.3-1.1 4.4-.4l12.9 7.6z"/><path fill="#5ec363" d="M657.6 526.2c3.4-2 6.2-.4 6.2 3.5l.2 56.9c0 3.9-2.8 8.7-6.2 10.6l-51.4 29.7c-3.4 2-6.2.4-6.2-3.5l-.2-56.9c0-3.9 2.7-8.7 6.2-10.6l51.4-29.7z"/><path fill="#1d2943" d="m588.9 617.7-.1 31.9-4.6 2.7-3.7-2.2.1-31.9c0-1.2-.8-2.7-1.9-3.3l-31.2-18v28.7l-4.6 2.7c-.1 0-.1 0 0 0l-3.8-2.2.1-31.9c0-1.8.6-3 1.7-3.6l4.6-2.7c1-.6 2.4-.5 4 .4l33.9 19.6c3 1.9 5.5 6.3 5.5 9.8z"/><path fill="#111d33" d="m542.8 628.4 4.6-2.7.1-31.9c0-.6.2-1 .6-1.2l-4.6 2.7c-.3.2-.6.6-.6 1.2l-.1 31.9z"/><path fill="#4c5c75" d="M540.8 590.7c1-.6 2.4-.5 4 .4l33.9 19.6c3.1 1.8 5.6 6.2 5.6 9.7l-.1 31.9 4.6-2.7.1-31.9c0-3.6-2.5-7.9-5.6-9.7l-33.9-19.6c-1.6-.9-3-1-4-.4l-4.6 2.7z"/><path fill="#1d2943" d="M544.8 591.1c-3.1-1.8-5.6-.4-5.7 3.2l-.1 31.9 3.7 2.2.1-31.9c0-1.2.8-1.7 1.9-1.1l33.9 19.6c1 .6 1.9 2.1 1.9 3.3l-.1 31.9 3.7 2.2.1-31.9c0-3.6-2.5-7.9-5.6-9.7l-33.8-19.7z"/><path fill="#f5c9c6" d="M529.2 548.5c1.4.9.8 3.1 1.6 5.3 1 2.6 1.6 5.7-2.7 7.6-3.8 1.7-9.6-.1-16.5-3-.9-.4-1.9-.8-2.9-1.3-5.4-2.5 5.9-7 6.7-7 0 0-.5-.2-1.2-.5-2.2-1-6.8-2.7-4.9-3.7 2.6-1.4 7.5-.1 11.1 1.7 1.9 1 3.6 2 4.5 2.7.2.1.6.1.5-.1-1.1-2.3 1-2.6 3.1-2.2.3.3.5.4.7.5z"/><path fill="#fff" d="m532.1 554-1.4-.7-.5-.3h-.1c-1.3-.6-3.1-.4-4.9.7-2.8 1.6-5.5 3.6-6.8 6.7-.2.5 0 1 .4 1.2 1.9 1.1 7.1 4.2 13.2 7.8V554z"/><path fill="#497bfe" d="M576.3 566.4c-.8 18.4-7.1 24.3-13.3 21.8-5.5-2.2-37.4-22.1-42.8-25.3-.5-.3-.7-.8-.5-1.3 1.3-3.3 4.2-5.3 7.1-7 2-1.1 3.8-1.3 5.2-.7h.1l.5.3 24.6 13.4.9.5c1.2.7 2.7 0 3-1.3l.3-1.2c.8-12.6-1.3-24.5 4.4-29.6 2.3-2 7.9-1 9.5 1.4 2.9 4.1 1.7 12.8 1 29z"/><g opacity=".7"><linearGradient id="p" x1="458.928" x2="501.329" y1="573.954" y2="573.954" gradientUnits="userSpaceOnUse"><stop offset="0" stop-color="#f1eff6"/><stop offset="1" stop-color="#000082" stop-opacity="0"/></linearGradient><path fill="url(#p)" d="M459.9 569.3c-1.3.8-1.3 2 0 2.8l23.4 13.6c1.3.8 3.5.8 4.8 0l12.1-7c1.3-.8 1.3-2 0-2.8l-23.4-13.6c-1.3-.8-3.5-.8-4.8 0l-12.1 7z"/></g><path fill="#b0b8cf" d="M495.9 576.9c0 .5-.3 1-1 1.4l-12.1 7c-1.3.8-3.5.8-4.8 0l-23.4-13.6c-.7-.4-1-.9-1-1.4v-2.8l42.4 6.6-.1 2.8z"/><path fill="#e3e7f0" d="M454.5 566.1c-1.3.8-1.3 2 0 2.8l23.4 13.6c1.3.8 3.5.8 4.8 0l12.1-7c1.3-.8 1.3-2 0-2.8l-23.4-13.6c-1.3-.8-3.5-.8-4.8 0l-12.1 7z"/><path fill="#1d2943" d="m494.5 575.3-12.1 7c-1.1.6-2.9.6-4.1 0l-23.4-13.6c-1.1-.6-1.1-1.7 0-2.3l12.1-7c1.1-.6 2.9-.6 4.1 0l23.4 13.6c1.2.6 1.2 1.7 0 2.3z"/><path fill="#fff" d="m492.7 572.6-14.9 8.6-21-12.2 14.9-8.6z"/><path fill="#1d2943" d="M455.7 570.7c-.3-.2-.5 0-.6.3 0 .4.2.8.5 1l2.3 1.3c.3.2.6 0 .6-.3 0-.4-.2-.8-.6-1l-2.2-1.3z"/><path fill="#4c5c75" d="m458.5 571.8-2.3-1.3c-.2-.1-.3-.1-.4 0l-.4.2c.1-.1.2 0 .4 0l2.3 1.3c.3.2.6.6.6 1 0 .2-.1.3-.2.4l.4-.2c.1-.1.2-.2.2-.4-.1-.4-.3-.8-.6-1zM462.5 574.2l-2.3-1.4c-.2-.1-.3-.1-.4 0l-.4.2c.1-.1.2-.1.4 0l2.3 1.4c.3.2.5.6.5 1 0 .2-.1.3-.2.4l.4-.2c.1-.1.2-.2.2-.4.1-.4-.2-.9-.5-1z"/><path fill="#1d2943" d="M459.7 573.1c-.3-.2-.5 0-.6.3 0 .4.2.8.5 1l2.3 1.4c.3.2.5 0 .6-.3 0-.4-.2-.8-.5-1l-2.3-1.4z"/><path fill="#111d33" d="M645 628.9c0 3-1.5 5.5-3.7 6.7l-11 6h-.1c-1.2.7-2.7 1-4.3.8l-5-.7c.9-.5-3.4 2 9.2-5.3.2-.5.3-1.1.3-1.8l-.1-45.5 11.2-6.1 3.3.9.2 45z"/><path fill="#4c5c75" d="M626 638.8c.9.1 1.7 0 2.4-.4l11.2-6.1c-.7.4-1.5.6-2.5.4l-.6-.1-10.5 6.2z"/><path fill="#111d33" d="M645 628.9c0 3-1.5 5.5-3.7 6.7l-11.2 6.1c2.2-1.2 3.7-3.6 3.7-6.7v-45.1l11.2-6.1v45.1z"/><path fill="#4c5c75" d="m641.7 582.9-11.2 6.1 3.3.9 11.2-6.1z"/><path fill="#1d2943" d="m633.8 589.9-3.3-.9.1 45.5c0 2.7-2.1 4.7-4.6 4.3h-.1l-4.9 2.9 5 .7c4.3.6 7.9-2.7 7.9-7.4l-.1-45.1z"/><path fill="#fff" d="M586.1 517.8c-.9 2.2-2.2 4.3-4 5.9 0 0 27 3.8 27.6-10.7l-2.4-3s-6 11.3-21.2 7.8z"/><path fill="#fff" d="m609.7 513 .2-2.5-2.1.2z"/><path fill="#8a4852" d="M610.3 508.1c-1.5 2.2-3.6 3.9-6 5-14.5 6.6-12.1-6.9-11.8-10.5.3-3.9-2.4-5.5-4.9-4.6-2.5.9-3.2 3.8-3.2 3.8-6.9 3.4-3.8-21-3.8-21h-.1c-3.2-.8-5.8-3.8-6.1-4.2-3.4-2.2-2.4-9.2-2.4-9.2 3.3-.3 7.5-2 10.9-3.7 6.6-3.3 14.2-4 21.2-1.7 14.5 4.8 13.2 17.7 13.2 17.7 6.1 8-2.6 22.1-7 28.4z"/><path fill="#51383c" d="M613.7 480.2c-7.1 1.4-23.5 4.1-33.3 2.2l.1-1.7s23.3.7 33.2-.5z"/><path fill="#1d2943" d="M821.1 484.2 821 516l-4.6 2.7-3.7-2.1.1-31.9c0-1.2-.9-2.7-1.9-3.3l-31.2-18v28.7l-4.6 2.7-3.8-2.2.1-31.9c0-1.8.6-3.1 1.7-3.6.4-.3 4.5-2.6 4.6-2.7 1-.6 2.4-.5 4 .4l33.9 19.6c3 1.9 5.5 6.2 5.5 9.8z"/><path fill="#111d33" d="m775 494.8 4.6-2.7.1-31.9c0-.6.2-1 .6-1.2l-4.6 2.7c-.3.2-.6.6-.6 1.2l-.1 31.9z"/><path fill="#4c5c75" d="M772.9 457.2c1-.6 2.4-.5 4 .4l33.9 19.6c3.1 1.8 5.6 6.2 5.6 9.7l-.1 31.9 4.6-2.7.1-31.9c0-3.6-2.5-7.9-5.6-9.7l-33.9-19.6c-1.6-.9-3-1-4-.4l-4.6 2.7z"/><path fill="#1d2943" d="M776.9 457.6c-3.1-1.8-5.6-.4-5.7 3.2l-.1 31.9 3.7 2.2.2-31.9c0-1.2.8-1.7 1.9-1.1l33.9 19.6c1 .6 1.9 2.1 1.9 3.3l-.1 31.9 3.7 2.2.1-31.9c0-3.6-2.5-7.9-5.6-9.7l-33.9-19.7z"/><path fill="#4c5c75" d="M722.2 576.8c0 1.3-.5 2.2-1.2 2.7l-3.2 1.9-5.9-10 3.3-1.9c.8-.4 1.8-.4 3 .3 2.2 1.3 4 4.3 4 7z"/><path fill="#1d2943" d="M714.9 571.6c-2.3-1.3-4.1-.3-4.1 2.3 0 2.6 1.8 5.8 4.1 7.1 2.3 1.3 4.1.2 4.1-2.4s-1.8-5.7-4.1-7z"/><path fill="#dedffb" d="M714.9 573.5c-1.4-.8-2.5-.2-2.5 1.4 0 1.6 1.1 3.5 2.5 4.3 1.4.8 2.4.1 2.5-1.4-.1-1.6-1.1-3.5-2.5-4.3z"/><path fill="#111d33" d="M751.4 582v7.8l-3.2 1.8-36.1-20.8V563l3.2-1.8z"/><path fill="#dedffb" d="m748.2 591.6 3.2-1.8V582l-3.2 1.9z"/><path fill="#4c5c75" d="m748.2 583.9 3.2-1.9-36.1-20.8-3.2 1.8z"/><path fill="#111d33" d="M712.1 563v7.8l36.1 20.8v-7.7z"/><path fill="#4c5c75" d="M795.4 577.8c0 1.3.5 2.2 1.2 2.6l3.2 1.9c-.8-.4.6-1.1.6-2.4 0-2.6 3-3.8 5.2-5.1 1.2-.7-.8-3 0-2.6l-3.2-1.9c-.8-.4-1.8-.4-3 .3-2.2 1.5-4 4.6-4 7.2z"/><path fill="#1d2943" d="M802.8 572.6c2.3-1.3 4.1-.3 4.1 2.3 0 2.6-1.8 5.8-4.1 7.1-2.3 1.3-4.1.2-4.1-2.4 0-2.5 1.8-5.6 4.1-7z"/><path fill="#dedffb" d="M802.8 574.5c1.4-.8 2.5-.2 2.5 1.4 0 1.6-1.1 3.5-2.5 4.3-1.4.8-2.4.1-2.5-1.4 0-1.6 1.1-3.5 2.5-4.3z"/><path fill="#111d33" d="m806.4 570.8-36.1 20.8-3.2-1.8V582l36.1-20.8 3.2 1.8z"/><path fill="#dedffb" d="m770.3 591.6-3.2-1.8V582l3.2 1.9z"/><path fill="#4c5c75" d="m769.7 584.2-2.6-2.2 36.1-20.9 3.2 1.9c-10.2 8.8-23.1 15.7-36.7 21.2z"/><path fill="#111d33" d="M806.4 563v7.8l-36.1 20.8-.6-7.4z"/><path fill="#9ea9c9" d="M770.6 586.2v11.2c0 2-1.6 4.1-4.2 5.6-5.1 3-13.5 3-18.7 0-2.6-1.5-3.6-3.7-3.6-5.6v-11.2c0 2 2.2 2.5 4.8 4 5.2 3 12.5 2 17.6-1 2.7-1.5 4.1-1 4.1-3z"/><path fill="#c9cee2" d="M766.7 580.8c5.2 3 5.2 7.9.1 10.8-5.1 3-13.5 3-18.7 0-5.2-3-5.2-7.9-.1-10.8 5.2-3 13.6-3 18.7 0z"/><path fill="#1d2943" d="m764.1 534.6-.2 51.1c0 1-.7 2-2 2.7-2.6 1.5-6.9 1.5-9.5 0-1.3-.8-2-1.8-2-2.8l.2-51.1c0 1 .7 2 2 2.8 2.6 1.5 6.9 1.5 9.5 0 1.3-.7 2-1.7 2-2.7z"/><path fill="#c9cee2" d="M762.1 531.9c2.6 1.5 2.6 4 0 5.5s-6.9 1.5-9.5 0c-2.6-1.5-2.6-4 0-5.5s6.9-1.6 9.5 0z"/><path fill="#4c5c75" d="M807 625.9c0 1.3-.5 2.2-1.2 2.7l-3.2 1.9-5.8-10.1 3.2-1.9c.8-.4 1.8-.4 3 .3 2.2 1.3 4 4.4 4 7.1z"/><path fill="#1d2943" d="M799.7 620.7c-2.3-1.3-4.1-.3-4.1 2.3 0 2.6 1.8 5.8 4.1 7.1 2.3 1.3 4.1.2 4.1-2.4s-1.8-5.7-4.1-7z"/><path fill="#dedffb" d="M799.7 622.6c-1.4-.8-2.5-.2-2.5 1.4 0 1.6 1.1 3.5 2.5 4.3 1.4.8 2.4.1 2.5-1.4-.1-1.7-1.1-3.5-2.5-4.3z"/><path fill="#111d33" d="m805.2 613.1-.1 7.7-3.2 1.8-36.1-20.8v-7.7l3.2-1.9z"/><path fill="#111d33" d="m801.9 622.6 3.2-1.8v-7.7l-3.2 1.8z"/><path fill="#4c5c75" d="m801.9 614.9 3.2-1.9-36.1-20.8-3.2 1.9c11 9.3 23.1 16.1 36.1 20.8z"/><path fill="#111d33" d="M765.8 594.1v7.7l36.1 20.8v-7.7z"/><path fill="#4c5c75" d="M711.6 625.6c0 1.3.5 2.2 1.2 2.6l3.2 1.9c-.8-.4.7-1.4.7-2.7 0-2.6.4-3.8 2.7-5.1 1.2-.7 1.7-2.7 2.5-2.3l-3.2-1.9c-.8-.4-1.8-.4-3 .3-2.3 1.4-4.1 4.5-4.1 7.2z"/><path fill="#1d2943" d="M718.9 620.4c2.3-1.3 4.1-.3 4.1 2.3 0 2.6-1.8 5.8-4.1 7.1-2.3 1.3-4.1.2-4.1-2.4.1-2.6 1.8-5.7 4.1-7z"/><path fill="#dedffb" d="M719 622.3c1.4-.8 2.5-.2 2.5 1.4 0 1.6-1.1 3.5-2.5 4.3-1.4.8-2.4.1-2.5-1.4 0-1.7 1.1-3.5 2.5-4.3z"/><path fill="#111d33" d="m750.7 603-34.1 19.6-3.2-1.8v-7.7l34-19.7 3.2 1.8z"/><path fill="#111d33" d="m716.6 622.6-3.2-1.9V613l3.2 1.9c2.9 1.4 2.4 4.2 0 7.7z"/><path fill="#4c5c75" d="m716.6 614.9-3.2-1.9 34.1-19.7 3.2 1.9c-10.2 11-21.7 17-34.1 19.7z"/><path fill="#111d33" d="m750.6 595.2.1 7.8-34.1 19.6v-7.7z"/><path fill="#1d2943" d="M701.6 554.6c-.6 1-1.6 2-2.8 2.2-7.1 1.3-11.2-2.4-11.2-2.4-15.1-3.8-22.1-12.6-18.3-15.7 3.7-3.1 17.7 2.3 17.7 2.3l14.6 5.2c2.6 1.2 1.3 6.2 0 8.4z"/><path fill="#5094ff" d="m686.7 496.5-2.1 43.6c3.5 5 8.2 6.6 17 6l8.6-47.5-23.5-2.1z"/><path fill="#5ec363" d="M817.4 526.2c0 1.3-.9 2.6-2.6 3.6l-51.4 29.7c-3.4 1.9-8.9 1.9-12.3 0l-51-29.7c-1.7-1-2.5-2.2-2.5-3.5l-.1-17.5h119.8l.1 17.4z"/><path fill="#72d561" d="M814.8 512.3 763.4 542c-3.4 2-8.9 2-12.3 0l-51-29.7c-3.4-1.9-3.4-5.1.1-7.1l51.4-29.6c3.4-2 8.9-2 12.3-.1l51 29.7c3.3 1.9 3.3 5.2-.1 7.1z"/><g opacity=".7"><linearGradient id="q" x1="2136.034" x2="2217.845" y1="445.668" y2="445.668" gradientTransform="matrix(-1 0 0 1 2868.239 0)" gradientUnits="userSpaceOnUse"><stop offset="0" stop-color="#f1eff6"/><stop offset="1" stop-color="#000082" stop-opacity="0"/></linearGradient><path fill="url(#q)" d="M730 432.7c2.9 1.7 2.9 4.4 0 6l-50.7 29.4c-2.9 1.7-7.5 1.7-10.4 0l-16.4-9.5c-2.9-1.7-2.9-4.4 0-6l50.7-29.4c2.9-1.7 7.5-1.7 10.4 0l16.4 9.5z"/></g><path fill="#f3f1fc" d="M713.7 411.5c-.9-.5-1.6-.5-2.2-.2-.1.1-72.5 41.9-72.7 42.1-.6.3-.9 1-.9 2 0 3.1 3.3 6.7 5.3 5.5l4.5-2.6L670 471l72.7-42.1v-.9l-29-16.5z"/><path fill="#f3f1fc" d="m639.3 454.3 72.7-42.1c-.4.2-.7.7-.7 1.5 0 1.4 1 3.2 2.3 3.9.6.4 1.2.4 1.6.2l-72.7 42.1c-.4.2-1 .2-1.6-.2-1.3-.7-2.3-2.5-2.3-3.9.1-.7.3-1.3.7-1.5z"/><path fill="#e9e7fc" d="m715.8 418.7-72.7 42.1c.6-.3.9-1 .9-2l72.7-42.1c0 1-.3 1.7-.9 2z"/><path fill="#dedffb" d="m643.3 458.4 72.6-42.1.8.5-72.7 42.1z"/><path fill="#e9e7fc" d="m670 470.1 72.7-42.1v.9L670 471z"/><path fill="#fff" d="M742.7 428 670 470.1l-29-16.6c-.9-.5-1.6-.6-2.2-.2l72.7-42.1c.6-.3 1.3-.3 2.2.2l29 16.6z"/><path fill="#cacdea" d="M670 470.1v.9l-29-16.6c-1.3-.7-2.3-.1-2.3 1.3 0 1.4 1 3.2 2.3 3.9 1.3.7 2.3.1 2.3-1.3l.8.5c0 2-1.4 2.7-3.1 1.8-1.7-1-3.1-3.3-3.1-5.3s1.4-2.7 3.1-1.8l29 16.6z"/><path fill="#4c5c75" d="M663.3 445.9c-.1.1-.1.2 0 .3l3.2 1.9c.1.1.4.1.5 0l3.2-1.9c.1-.1.1-.2 0-.3L667 444c-.1-.1-.4-.1-.5 0l-3.2 1.9zM660 444c-.1.1-.1.2 0 .3l.7.4c.1.1.4.1.5 0l3.2-1.9c.1-.1.1-.2 0-.3l-.7-.4c-.1-.1-.4-.1-.5 0L660 444zM667.9 448.6c-.1.1-.1.2 0 .3l3.2 1.9c.1.1.4.1.5 0l3.2-1.9c.1-.1.1-.2 0-.3l-3.2-1.9c-.1-.1-.4-.1-.5 0l-3.2 1.9z"/><path fill="#4c5c75" d="M717.1 420.2c-.1.1-.1.2 0 .3l3.2 1.9c.1.1.4.1.5 0l3.2-1.9c.1-.1.1-.2 0-.3l-3.2-1.9c-.1-.1-.4-.1-.5 0l-3.2 1.9zM707.5 420.4c-.1.1-.1.2 0 .3l3.2 1.9c.1.1.4.1.5 0l8.1-4.7c.1-.1.1-.2 0-.3l-3.2-1.9c-.1-.1-.4-.1-.5 0l-8.1 4.7zM712.2 423.1c-.1.1-.1.2 0 .3l3.2 1.9c.1.1.4.1.5 0l3.2-1.9c.1-.1.1-.2 0-.3l-3.2-1.9c-.1-.1-.4-.1-.5 0l-3.2 1.9z"/><path fill="#4c5c75" d="M668.2 443.1c-.1.1-.1.2 0 .3l3.2 1.9c.1.1.4.1.5 0l3.2-1.9c.1-.1.1-.2 0-.3l-3.2-1.9c-.1-.1-.4-.1-.5 0l-3.2 1.9zM721.8 423c-.1.1-.1.2 0 .3l3.2 1.9c.1.1.4.1.5 0l3.2-1.9c.1-.1.1-.2 0-.3l-3.2-1.9c-.1-.1-.4-.1-.5 0l-3.2 1.9zM716.8 425.8c-.1.1-.1.2 0 .3l3.2 1.9c.1.1.4.1.5 0l3.2-1.9c.1-.1.1-.2 0-.3l-3.2-1.9c-.1-.1-.4-.1-.5 0l-3.2 1.9z"/><path fill="#4c5c75" d="M699.3 421.3c-.1.1-.1.2 0 .3l.7.4c.1.1.4.1.5 0l3.2-1.9c.1-.1.1-.2 0-.3l-.7-.4c-.1-.1-.4-.1-.5 0l-3.2 1.9zM694.4 424.1c-.1.1-.1.2 0 .3l.7.4c.1.1.4.1.5 0l3.2-1.9c.1-.1.1-.2 0-.3l-.7-.4c-.1-.1-.4-.1-.5 0l-3.2 1.9zM702.6 423.2c-.1.1-.1.2 0 .3l3.2 1.9c.1.1.4.1.5 0l3.2-1.9c.1-.1.1-.2 0-.3l-3.2-1.9c-.1-.1-.4-.1-.5 0l-3.2 1.9zM689.5 427c-.1.1-.1.2 0 .3l.7.4c.1.1.4.1.5 0l3.2-1.9c.1-.1.1-.2 0-.3l-.7-.4c-.1-.1-.4-.1-.5 0l-3.2 1.9zM697.7 426.1c-.1.1-.1.2 0 .3l3.2 1.9c.1.1.4.1.5 0l3.2-1.9c.1-.1.1-.2 0-.3l-3.2-1.9c-.1-.1-.4-.1-.5 0l-3.2 1.9zM711.9 428.6c-.1.1-.1.2 0 .3l3.2 1.9c.1.1.4.1.5 0l3.2-1.9c.1-.1.1-.2 0-.3l-3.2-1.9c-.1-.1-.4-.1-.5 0l-3.2 1.9zM702.3 428.8c-.1.1-.1.2 0 .3l3.2 1.9c.1.1.4.1.5 0l3.2-1.9c.1-.1.1-.2 0-.3l-3.2-1.9c-.1-.1-.4-.1-.5 0l-3.2 1.9zM692.8 428.9c-.1.1-.1.2 0 .3l3.2 1.9c.1.1.4.1.5 0l3.2-1.9c.1-.1.1-.2 0-.3l-3.2-1.9c-.1-.1-.4-.1-.5 0l-3.2 1.9zM716.6 431.3c-.1.1-.1.2 0 .3l3.2 1.9c.1.1.4.1.5 0l13-7.5c.1-.1.1-.2 0-.3l-3.2-1.9c-.1-.1-.4-.1-.5 0l-13 7.5zM707 431.5c-.1.1-.1.2 0 .3l3.2 1.9c.1.1.4.1.5 0l3.2-1.9c.1-.1.1-.2 0-.3l-3.2-1.9c-.1-.1-.4-.1-.5 0l-3.2 1.9zM697.4 431.6c-.1.1-.1.2 0 .3l3.2 1.9c.1.1.4.1.5 0l3.2-1.9c.1-.1.1-.2 0-.3l-3.2-1.9c-.1-.1-.4-.1-.5 0l-3.2 1.9zM711.7 434.2c-.1.1-.1.2 0 .3l3.2 1.9c.1.1.4.1.5 0l3.2-1.9c.1-.1.1-.2 0-.3l-3.2-1.9c-.1-.1-.4-.1-.5 0l-3.2 1.9zM702.1 434.3c-.1.1-.1.2 0 .3l3.2 1.9c.1.1.4.1.5 0l3.2-1.9c.1-.1.1-.2 0-.3l-3.2-1.9c-.1-.1-.4-.1-.5 0l-3.2 1.9zM692.5 434.4c-.1.1-.1.2 0 .3l3.2 1.9c.1.1.4.1.5 0l3.2-1.9c.1-.1.1-.2 0-.3l-3.2-1.9c-.1-.1-.4-.1-.5 0l-3.2 1.9zM706.8 437c-.1.1-.1.2 0 .3l3.2 1.9c.1.1.4.1.5 0l3.2-1.9c.1-.1.1-.2 0-.3l-3.2-1.9c-.1-.1-.4-.1-.5 0l-3.2 1.9zM687.6 437.3c-.1.1-.1.2 0 .3l3.2 1.9c.1.1.4.1.5 0l3.2-1.9c.1-.1.1-.2 0-.3l-3.2-1.9c-.1-.1-.4-.1-.5 0l-3.2 1.9zM682.7 440.1c-.1.1-.1.2 0 .3l3.2 1.9c.1.1.4.1.5 0l3.2-1.9c.1-.1.1-.2 0-.3l-3.2-1.9c-.1-.1-.4-.1-.5 0l-3.2 1.9zM687.3 442.8c-.1.1-.1.2 0 .3l3.2 1.9c.1.1.4.1.5 0l3.2-1.9c.1-.1.1-.2 0-.3L691 441c-.1-.1-.4-.1-.5 0l-3.2 1.8zM677.8 442.9c-.1.1-.1.2 0 .3l3.2 1.9c.1.1.4.1.5 0l3.2-1.9c.1-.1.1-.2 0-.3l-3.2-1.9c-.1-.1-.4-.1-.5 0l-3.2 1.9zM682.4 445.7c-.1.1-.1.2 0 .3l3.2 1.9c.1.1.4.1.5 0l3.2-1.9c.1-.1.1-.2 0-.3l-3.2-1.9c-.1-.1-.4-.1-.5 0l-3.2 1.9zM672.8 445.8c-.1.1-.1.2 0 .3l3.2 1.9c.1.1.4.1.5 0l3.2-1.9c.1-.1.1-.2 0-.3l-3.2-1.9c-.1-.1-.4-.1-.5 0l-3.2 1.9zM677.5 448.5c-.1.1-.1.2 0 .3l3.2 1.9c.1.1.4.1.5 0l3.2-1.9c.1-.1.1-.2 0-.3l-3.2-1.9c-.1-.1-.4-.1-.5 0l-3.2 1.9zM682.2 451.2c-.1.1-.1.2 0 .3l3.2 1.9c.1.1.4.1.5 0l3.2-1.9c.1-.1.1-.2 0-.3l-3.2-1.9c-.1-.1-.4-.1-.5 0l-3.2 1.9zM672.6 451.3c-.1.1-.1.2 0 .3l3.2 1.9c.1.1.4.1.5 0l3.2-1.9c.1-.1.1-.2 0-.3l-3.2-1.9c-.1-.1-.4-.1-.5 0l-3.2 1.9zM677.3 454c-.1.1-.1.2 0 .3l3.2 1.9c.1.1.4.1.5 0l3.2-1.9c.1-.1.1-.2 0-.3l-3.2-1.9c-.1-.1-.4-.1-.5 0l-3.2 1.9zM681.9 456.8c-.1.1-.1.2 0 .3l3.2 1.9c.1.1.4.1.5 0l37.6-21.7c.1-.1.1-.2 0-.3l-3.2-2c-.1-.1-.4-.1-.5 0l-37.6 21.8z"/><path fill="#4c5c75" d="M677 459.6c-.1.1-.1.2 0 .3l3.2 1.9c.1.1.4.1.5 0l3.2-1.9c.1-.1.1-.2 0-.3l-3.2-1.9c-.1-.1-.4-.1-.5 0l-3.2 1.9zM672.3 456.9c-.1.1-.1.2 0 .3l3.2 1.9c.1.1.4.1.5 0l3.2-1.9c.1-.1.1-.2 0-.3L676 455c-.1-.1-.4-.1-.5 0l-3.2 1.9z"/><path fill="#4c5c75" d="M663 451.5c-.1.1-.1.2 0 .3l3.2 1.9c.1.1.4.1.5 0l3.2-1.9c.1-.1.1-.2 0-.3l-3.2-1.9c-.1-.1-.4-.1-.5 0l-3.2 1.9zM653.4 451.6c-.1.1-.1.2 0 .3l3.2 1.9c.1.1.4.1.5 0l3.2-1.9c.1-.1.1-.2 0-.3l-3.2-1.9c-.1-.1-.4-.1-.5 0l-3.2 1.9zM653.2 457.1c-.1.1-.1.2 0 .3l3.2 1.9c.1.1.4.1.5 0l8.1-4.7c.1-.1.1-.2 0-.3l-3.2-1.9c-.1-.1-.4-.1-.5 0l-8.1 4.7zM657.8 459.8c-.1.1-.1.2 0 .3l3.2 1.9c.1.1.4.1.5 0l13.1-7.5c.1-.1.1-.2 0-.3l-3.2-1.9c-.1-.1-.4-.1-.5 0l-13.1 7.5zM672.1 462.4c-.1.1-.1.2 0 .3l3.2 1.9c.1.1.4.1.5 0l3.2-1.9c.1-.1.1-.2 0-.3l-3.2-1.9c-.1-.1-.4-.1-.5 0l-3.2 1.9zM662.5 462.6c-.1.1-.1.2 0 .3l3.2 1.9c.1.1.4.1.5 0l8.1-4.7c.1-.1.1-.2 0-.3l-3.2-1.9c-.1-.1-.4-.1-.5 0l-8.1 4.7zM667.2 465.3c-.1.1-.1.2 0 .3l3.2 1.9c.1.1.4.1.5 0l3.2-1.9c.1-.1.1-.2 0-.3l-3.2-1.9c-.1-.1-.4-.1-.5 0l-3.2 1.9z"/><path fill="#4c5c75" d="M658.4 448.8c-.1.1-.1.2 0 .3l3.2 1.9c.1.1.4.1.5 0l3.2-1.9c.1-.1.1-.2 0-.3l-3.2-1.9c-.1-.1-.4-.1-.5 0l-3.2 1.9zM655.1 446.8c-.1.1-.1.2 0 .3l.7.4c.1.1.4.1.5 0l3.2-1.9c.1-.1.1-.2 0-.3l-.7-.4c-.1-.1-.4-.1-.5 0l-3.2 1.9zM645.2 452.5c-.1.1-.1.2 0 .3l.7.4c.1.1.4.1.5 0l3.2-1.9c.1-.1.1-.2 0-.3l-.7-.4c-.1-.1-.4-.1-.5 0l-3.2 1.9zM650.1 449.7c-.1.1-.1.2 0 .3l.7.4c.1.1.4.1.5 0l3.2-1.9c.1-.1.1-.2 0-.3l-.7-.4c-.1-.1-.4-.1-.5 0l-3.2 1.9zM669.8 438.3c-.1.1-.1.2 0 .3l.7.4c.1.1.4.1.5 0l3.2-1.9c.1-.1.1-.2 0-.3l-.7-.4c-.1-.1-.4-.1-.5 0l-3.2 1.9zM664.9 441.2c-.1.1-.1.2 0 .3l.7.4c.1.1.4.1.5 0l3.2-1.9c.1-.1.1-.2 0-.3l-.7-.4c-.1-.1-.4-.1-.5 0l-3.2 1.9z"/><path fill="#4c5c75" d="M684.6 429.8c-.1.1-.1.2 0 .3l.7.4c.1.1.4.1.5 0l3.2-1.9c.1-.1.1-.2 0-.3l-.7-.4c-.1-.1-.4-.1-.5 0l-3.2 1.9zM679.6 432.6c-.1.1-.1.2 0 .3l.7.4c.1.1.4.1.5 0l3.2-1.9c.1-.1.1-.2 0-.3l-.7-.4c-.1-.1-.4-.1-.5 0l-3.2 1.9zM687.9 431.7c-.1.1-.1.2 0 .3l3.2 1.9c.1.1.4.1.5 0l3.2-1.9c.1-.1.1-.2 0-.3l-3.2-1.9c-.1-.1-.4-.1-.5 0l-3.2 1.9zM682.9 434.6c-.1.1-.1.2 0 .3l3.2 1.9c.1.1.4.1.5 0l3.2-1.9c.1-.1.1-.2 0-.3l-3.2-1.9c-.1-.1-.4-.1-.5 0l-3.2 1.9z"/><path fill="#4c5c75" d="M674.7 435.5c-.1.1-.1.2 0 .3l.7.4c.1.1.4.1.5 0l3.2-1.9c.1-.1.1-.2 0-.3l-.7-.4c-.1-.1-.4-.1-.5 0l-3.2 1.9zM704.2 418.5c-.1.1-.1.2 0 .3l.7.4c.1.1.4.1.5 0l3.2-1.9c.1-.1.1-.2 0-.3l-.7-.4c-.1-.1-.4-.1-.5 0l-3.2 1.9zM709.1 415.6c-.1.1-.1.2 0 .3l.7.4c.1.1.4.1.5 0l3.2-1.9c.1-.1.1-.2 0-.3l-.7-.4c-.1-.1-.4-.1-.5 0l-3.2 1.9zM648.5 454.4c-.1.1-.1.2 0 .3l3.2 1.9c.1.1.4.1.5 0l3.2-1.9c.1-.1.1-.2 0-.3l-3.2-1.9c-.1-.1-.4-.1-.5 0l-3.2 1.9zM678 437.4c-.1.1-.1.2 0 .3l3.2 1.9c.1.1.4.1.5 0l3.2-1.9c.1-.1.1-.2 0-.3l-3.2-1.9c-.1-.1-.4-.1-.5 0l-3.2 1.9zM673.1 440.2c-.1.1-.1.2 0 .3l3.2 1.9c.1.1.4.1.5 0l3.2-1.9c.1-.1.1-.2 0-.3l-3.2-1.9c-.1-.1-.4-.1-.5 0l-3.2 1.9zM707.3 425.9c-.1.1-.1.2 0 .3l3.2 1.9c.1.1.4.1.5 0l3.2-1.9c.1-.1.1-.2 0-.3L711 424c-.1-.1-.4-.1-.5 0l-3.2 1.9zM692.3 440c-.1.1-.1.2 0 .3l3.2 1.9c.1.1.4.1.5 0l3.2-1.9c.1-.1.1-.2 0-.3l-3.2-1.9c-.1-.1-.4-.1-.5 0l-3.2 1.9zM692 445.5c-.1.1-.1.2 0 .3l3.2 1.9c.1.1.4.1.5 0l3.2-1.9c.1-.1.1-.2 0-.3l-3.2-1.9c-.1-.1-.4-.1-.5 0l-3.2 1.9z"/><path fill="#4c5c75" d="M701.8 439.9c-.1.1-.1.2 0 .3l3.2 1.9c.1.1.4.1.5 0l3.2-1.9c.1-.1.1-.2 0-.3l-3.2-1.9c-.1-.1-.4-.1-.5 0l-3.2 1.9zM696.9 442.7c-.1.1-.1.2 0 .3l3.2 1.9c.1.1.4.1.5 0l3.2-1.9c.1-.1.1-.2 0-.3l-3.2-1.9c-.1-.1-.4-.1-.5 0l-3.2 1.9z"/><path fill="#4c5c75" d="M697.2 437.1c-.1.1-.1.2 0 .3l3.2 1.9c.1.1.4.1.5 0l3.2-1.9c.1-.1.1-.2 0-.3l-3.2-1.9c-.1-.1-.4-.1-.5 0l-3.2 1.9zM687.1 448.4c-.1.1-.1.2 0 .3l3.2 1.9c.1.1.4.1.5 0l3.2-1.9c.1-.1.1-.2 0-.3l-3.2-1.9c-.1-.1-.4-.1-.5 0l-3.2 1.9zM721.2 434c-.1.1-.1.2 0 .3l3.2 1.9c.1.1.4.1.5 0l3.2-1.9c.1-.1.1-.2 0-.3l-3.2-1.9c-.1-.1-.4-.1-.5 0l-3.2 1.9zM726.2 431.2c-.1.1-.1.2 0 .3l3.2 1.9c.1.1.4.1.5 0l3.2-1.9c.1-.1.1-.2 0-.3l-3.2-1.9c-.1-.1-.4-.1-.5 0l-3.2 1.9zM731.1 428.4c-.1.1-.1.2 0 .3l3.2 1.9c.1.1.4.1.5 0l3.2-1.9c.1-.1.1-.2 0-.3l-3.2-1.9c-.1-.1-.4-.1-.5 0l-3.2 1.9z"/><path fill="#1d2943" d="M743.6 420.8c-2.9.8-5.9 0-7.8-1.5-1.9-1.5-5.6-3.1-6.9-3.6-1.2-.5-1.2-1.5-1.2-1.5v-.9s0-.1 0 0c0-.8-.1-3 2.5-4.4 2.8-1.5 6.4-.3 9.4 1 3.6 1.5 6 5.3 6.1 5.4 0 0 .7 1 .8 2 .2.8 0 2.7-2.9 3.5z"/><path fill="#4c5c75" d="M746.4 418.1c-.3 1-3.6 2.4-6 2.4s-3.9-1.9-5.2-4c-1.3-2.1-4.4-2.7-6-2.2-1.6.4-1.6-1-1.6-1 0-.9-.1-3 2.5-4.4l.6-.3c2.5-1 5.6-.1 8.8 1.3.1 0 .1.1.2.1 3.5 1.6 5.9 5.3 5.9 5.3s1.2 1.8.8 2.8z"/><path fill="#1d2943" d="M743.6 420.8c-2.9.8-5.9 0-7.8-1.5-1.9-1.5-5.6-3.1-6.9-3.7-1.2-.5-1.2-1.5-1.2-1.5v-1c0 .1 0 1.5 1.6 1.1 1.6-.4 4.7.2 6 2.2 1.3 2.1 2.8 4 5.2 4 2.4 0 5.7-1.4 6-2.4.1-.2.1-.5.1-.7.1.8-.1 2.7-3 3.5z"/><path fill="#9ea9c9" d="M739.6 410c-1.3-.1-2.5.5-3.4 1.2-.1 0-.1.1-.2.1-1.7 1.3-2.7 3-2.7 3-.4-.3-2.6-.6-3.7-.6s-1.4-.5-1.4-.5c-.9-1.3.5-2.8 1.4-3.6l.2-.2c.4-.3.6-.5.6-.5.2-.2.5-.3.7-.4 2.6-.7 5.5.2 8.5 1.5z"/><path fill="#4c5c75" d="M736.2 411.2c-.1 0-.1.1-.2.1-2-.9-4.8-1.5-6.3-1.7l.2-.2c1.6.3 4.3.9 6.3 1.8z"/><path fill="#4c5c75" d="m734.1 410.3-.5.5c-.2-.7-.9-1.4-1.5-1.6-.3-.1-.6 0-.8.2l.5-.5c.2-.2.4-.2.8-.2.6.2 1.3.9 1.5 1.6z"/><path fill="#111d33" d="m733.5 410.8-2.5-.5c-.2-.7.3-1.2.9-1 .8 0 1.5.7 1.6 1.5z"/><path fill="#f5c9c6" d="M735.3 429.5c6 3.6 7.1 7.3 3.5 9-4.1 2-8 1.2-12 .6-3.5-.5-7.2-.3-8.4-.9-.2-.1-.3-.2-.3-.3-.4-.9.3-2 4-1.5.2 0 .4-.1.2-.2-1-.5-2.7-1.2-4.3-2-3-1.6-6-3.5-4.2-4.8 1.3-1 5.3.8 7.1 1.8l1 .5c.2-.3 5.3-6.2 10.7-3.6 1 .4 1.9.9 2.7 1.4z"/><path fill="#fff" d="m742.2 433.3-1.4-.7-.5-.3h-.1c-1.3-.6-3.1-.4-4.9.7-2.8 1.6-5.5 3.6-6.8 6.7-.2.5 0 1 .4 1.2 1.9 1.1 7.1 4.2 13.2 7.8v-15.4z"/><path fill="#df3260" d="m748.7 436.6-6.6-3.6-.5-.3h-.1c-1.4-.6-3.2-.4-5.2.7-2.9 1.7-5.8 3.8-7.1 7-.2.5 0 1 .5 1.3 2.5 1.5 10.5 6.2 19 11.3v-16.4z"/><path fill="#f45170" d="M770.2 417.6s16-4.2 19.6-2.6c14 6.2 9.7 28.2 9.7 57.4 0 14.3-4 17.5-4 17.5s-25.8 40.7-72.6 20.4c4.6-7.4 2.7-24.4 1-41 0 0-3.7-21.4 3.8-26.8 7.5-5.5 19.6-14.4 19.6-14.4l22.9-10.5z"/><path fill="#78e75a" d="m823.4 432.6-59.9 101.5-13-7.6c-1.1-.6-1.8-2-1.8-3.9l-.2-56.9c0-3.9 2.7-8.7 6.2-10.6l51.3-29.7c1.7-1 3.3-1.1 4.4-.4l13 7.6z"/><path fill="#5ec363" d="M819 433c3.4-2 6.2-.4 6.2 3.5l.2 56.9c0 3.9-2.8 8.7-6.2 10.6l-51.4 29.7c-3.4 2-6.2.4-6.2-3.5l-.2-56.9c0-3.9 2.7-8.7 6.2-10.6L819 433z"/><path fill="#1d2943" d="m750.3 524.5-.1 31.9-4.6 2.7-3.7-2.1.1-31.9c0-1.2-.8-2.7-1.9-3.3l-31.2-18v28.7l-4.6 2.7-3.8-2.2.1-31.9c0-1.8.7-3.1 1.8-3.7 0 0-.1 0-.1.1l4.6-2.7c1-.6 2.4-.5 4 .4l33.9 19.6c3 1.8 5.5 6.2 5.5 9.7z"/><path fill="#111d33" d="m704.2 535.2 4.6-2.7.1-31.9c0-.6.2-1 .6-1.2l-4.6 2.7c-.3.2-.6.6-.6 1.2l-.1 31.9z"/><path fill="#4c5c75" d="M702.2 497.6c1-.6 2.4-.5 4 .4l33.9 19.6c3.1 1.8 5.6 6.2 5.6 9.7l-.1 31.9 4.6-2.7.1-31.9c0-3.6-2.5-7.9-5.6-9.7l-33.9-19.6c-1.6-.9-3-1-4-.4l-4.6 2.7z"/><path fill="#1d2943" d="M706.2 498c-3.1-1.8-5.6-.4-5.7 3.2l-.1 31.9 3.7 2.2.1-31.9c0-1.2.8-1.7 1.9-1.1l33.9 19.6c1 .6 1.9 2.1 1.9 3.3l-.1 31.9 3.7 2.2.1-31.9c0-3.6-2.5-7.9-5.6-9.7L706.2 498z"/><path fill="#f5c9c6" d="M690.6 455.3c1.4.9.8 3.1 1.6 5.3 1 2.6 1.6 5.7-2.7 7.6-3.8 1.7-9.6-.1-16.5-3-.9-.4-1.9-.8-2.9-1.3-5.4-2.5 5.9-7 6.7-7 0 0-.5-.2-1.2-.5-2.2-1-6.8-2.7-4.9-3.7 2.6-1.4 7.5-.1 11.1 1.7 1.9 1 3.6 2 4.5 2.7.2.1.6.1.5-.1-1.1-2.3 1-2.6 3.1-2.2.3.3.5.4.7.5z"/><path fill="#fff" d="m693.5 460.9-1.4-.7-.5-.3h-.1c-1.3-.6-3.1-.4-4.9.7-2.8 1.6-5.5 3.6-6.8 6.7-.2.5 0 1 .4 1.2 1.9 1.1 7.1 4.2 13.2 7.8v-15.4z"/><path fill="#df3260" d="M737.7 473.2c-.8 18.4-7.1 24.3-13.3 21.8-5.5-2.2-37.4-22.1-42.8-25.3-.5-.3-.7-.8-.5-1.3 1.3-3.3 4.2-5.3 7.1-7 2-1.1 3.8-1.3 5.2-.7h.1l.5.3 24.6 13.4.9.5c1.2.7 2.7 0 3-1.3l.3-1.2c.8-12.6-1.3-24.5 4.4-29.6 2.3-2 7.7-.8 9.5 1.4 2.9 3.4 1.7 12.8 1 29z"/><g opacity=".7"><linearGradient id="r" x1="621.029" x2="663.431" y1="481.199" y2="481.199" gradientUnits="userSpaceOnUse"><stop offset="0" stop-color="#f1eff6"/><stop offset="1" stop-color="#000082" stop-opacity="0"/></linearGradient><path fill="url(#r)" d="M622 476.5c-1.3.8-1.3 2 0 2.8l23.4 13.6c1.3.8 3.5.8 4.8 0l12.1-7c1.3-.8 1.3-2 0-2.8L639 469.5c-1.3-.8-3.5-.8-4.8 0l-12.2 7z"/></g><path fill="#b0b8cf" d="M657.3 483.7c0 .5-.3 1-1 1.4l-12.1 7c-1.3.8-3.5.8-4.8 0L616 478.5c-.7-.4-1-.9-1-1.4v-2.8l42.4 6.6-.1 2.8z"/><path fill="#e3e7f0" d="M615.9 472.9c-1.3.8-1.3 2 0 2.8l23.4 13.6c1.3.8 3.5.8 4.8 0l12.1-7c1.3-.8 1.3-2 0-2.8l-23.4-13.6c-1.3-.8-3.5-.8-4.8 0l-12.1 7z"/><path fill="#1d2943" d="m655.9 482.1-12.1 7c-1.1.6-2.9.6-4.1 0l-23.4-13.6c-1.1-.6-1.1-1.7 0-2.3l12.1-7c1.1-.6 2.9-.6 4.1 0l23.4 13.6c1.2.6 1.2 1.7 0 2.3z"/><path fill="#fff" d="m654.1 479.4-14.9 8.6-21-12.1 14.9-8.7z"/><path fill="#4c5c75" d="M620.4 479.6c0 .2-.1.3-.2.4l-.4.2-3.1-2.7.4-.3h.4l2.3 1.4c.4.2.6.7.6 1z"/><path fill="#1d2943" d="M617.1 477.6c-.3-.2-.5 0-.6.3 0 .4.2.8.5 1l2.3 1.3c.3.2.6 0 .6-.3 0-.4-.2-.8-.6-1l-2.2-1.3z"/><path fill="#4c5c75" d="M624.4 482c0 .2-.1.3-.2.3l-.4.3-3.1-2.7.4-.2c.1-.1.2-.1.4 0l2.3 1.3c.4.2.6.6.6 1z"/><path fill="#1d2943" d="M621.1 479.9c-.3-.2-.5 0-.6.3 0 .4.2.8.5 1l2.3 1.4c.3.2.5 0 .6-.3 0-.4-.2-.8-.5-1l-2.3-1.4z"/><path fill="#111d33" d="M806.4 535.7c0 3-1.5 5.5-3.7 6.7l-11.1 6c-1.2.7-2.7 1-4.3.8l-5-.7c.9-.5-3.4 2 9.2-5.3.2-.5.3-1.2.3-1.8v-45.5l11.2-6.1 3.3.9.1 45z"/><path fill="#4c5c75" d="M787.4 545.6c.9.1 1.7 0 2.4-.4l11.2-6.1c-.7.4-1.5.6-2.5.4l-.6-.1-10.5 6.2z"/><path fill="#111d33" d="M806.4 535.7c0 3-1.5 5.5-3.7 6.7l-11.2 6.1c2.2-1.2 3.7-3.6 3.7-6.7v-45.1l11.2-6.1v45.1z"/><path fill="#4c5c75" d="m803.1 489.7-11.2 6.1 3.3.9 11.2-6.1z"/><path fill="#1d2943" d="m795.2 496.7-3.3-.9.1 45.5c0 2.7-2.1 4.7-4.6 4.3h-.1l-4.9 2.9 5 .7c4.3.6 7.9-2.7 7.9-7.4l-.1-45.1z"/><path fill="#fff" d="m771.1 419.8.2-2.5-2.1.2z"/><path fill="#1d2943" d="M678 271.9c-1.1-.7-2.6-.5-4.4.4l-100.8 58.2c-3.4 2-6.1 6.8-6.1 10.6l.2 73.4 6.4 3.7v-1.5l.3-72.7c0-3.9 1.5-7.9 4.9-9.9L679.1 276c1.7-1 2.5-2 3.5-1.4l-4.6-2.7z"/><path fill="#dedffb" d="M566.9 414.6v7c0 1.9.7 3.3 1.8 4l2.8 1.5 1.8 1c-1.1-.6 0-2.5-.1-4.4v-5.5l-6.3-3.6z"/><g><linearGradient id="s" x1="632.169" x2="668.181" y1="416.897" y2="416.897" gradientUnits="userSpaceOnUse"><stop offset="0" stop-color="#f1eff6"/><stop offset=".197" stop-color="#4746a4" stop-opacity=".293"/><stop offset="1" stop-color="#000082" stop-opacity="0"/></linearGradient><path fill="url(#s)" d="m663 408 5.2 5-36 14.1v-20.4z"/><path fill="#525566" d="M662.9 407.6v1.8l-30.6 17.7-16.6-10.6c-1.7-1-3.6-3.5-3.6-5.4l.5-12.6.3.1 27.1-15.7.9.5c0 .1 0 .1 0 0l1.3 11c0 1.4 1 3.1 2.2 3.8l18.5 9.4z"/><path fill="#525566" d="m613 398.7 27.1-15.8.8.5-27.1 15.8z"/><path fill="#1d2943" d="m632.4 425.3 30.5-17.7v1.8l-30.5 17.7z"/><path fill="#4c5c75" d="m662.9 407.6-30.6 17.7-16.6-10.6c-1.2-.7-2.2-2.4-2.2-3.7l.2-11.9 27.1-15.7 1.3 11c0 1.4 1 3.1 2.2 3.7l18.6 9.5z"/><path fill="#111d33" d="m613.8 399.2-.2 11.9c0 1.4 1 3.1 2.2 3.8l16.6 10.6v1.8l-16.6-10.6c-1.7-1-3.6-3.5-3.6-5.4l.5-12.6 1.1.5z"/></g><path fill="#eaf0f6" d="m602.6 405.3 36-21 6.4 4.3-36 20.9z"/><path fill="#4c5c75" d="m684.5 351.9-113 65.3-.2-73.4c0-3.9 2.8-8.6 6.2-10.6L678.3 275c3.4-2 6.2-.4 6.2 3.5v73.4z"/><path fill="#fff" d="m681.6 350.2-107.2 61.9-.2-71.7c0-1.4.7-2.7 1.9-3.4l102.5-58.9c1.3-.7 2.9.2 2.9 1.7l.1 70.4zM684.5 358.9c0 3.9-2.7 8.7-6.1 10.6l-100.7 58.1c-3.4 2-6.2.4-6.2-3.5v-7l113-65.2v7z"/><path fill="#b0b8cf" d="M630.6 390c0 1.8-1.3 4-2.8 4.9s-2.8.2-2.8-1.6 1.2-4 2.8-4.9c1.6-.9 2.8-.2 2.8 1.6z"/><path fill="#c9cee2" d="M581.3 398.5v2l-4.2 2.5v-2.1zM581.3 390v2l-4.2 2.5v-2.1zM581.3 381.5v2l-4.2 2.4v-2zM581.3 373v2l-4.2 2.4v-2zM581.3 364.5v2l-4.2 2.4v-2zM581.3 355.9v2.1l-4.2 2.4v-2zM581.3 347.4v2l-4.2 2.5v-2.1zM581.3 338.9v2l-4.2 2.5v-2.1zM678.6 342.2v2l-4.1 2.5v-2.1zM678.6 333.7v2l-4.1 2.5v-2.1zM678.6 325.2v2l-4.1 2.5v-2.1zM678.6 316.7v2l-4.1 2.4v-2zM678.6 308.2v2l-4.1 2.4v-2zM678.6 299.7v2l-4.1 2.4v-2zM678.6 291.1v2.1l-4.1 2.4v-2zM678.6 282.6v2l-4.1 2.5V285z"/><path fill="#6bb4f9" d="m625.2 349.9.1 26.9-39.8 22.9-.1-26.9z"/><path fill="#e3e7f0" d="m625.1 316.5.1 26.9-39.8 22.9-.1-26.9z"/><path fill="#ffde9b" d="m670.4 323.8.1 26.9-39.8 22.9v-26.9z"/><path fill="#fe90a9" d="m670.3 290.4.1 26.9-39.8 22.9v-26.9z"/><path fill="#fff" d="M657.4 303v5.1l3.6-2.1.1 7.1 4.8-2.8v7l-30.8 17.8v-7l4.8-2.8-.1-7 3.7-2.1-.1-5.1z"/><path fill="#1d2943" d="M516.6 365.1c-1.1-.7-2.6-.5-4.4.4l-100.8 58.2c-3.4 2-6.1 6.8-6.1 10.6l.2 73.4 6.4 3.7c.3-82.5.3-73.5.3-74.2 0-3.9 1.5-7.9 4.9-9.9l100.6-58.1c1.7-1 2.5-2 3.5-1.4l-4.6-2.7z"/><path fill="#dedffb" d="M405.5 507.7v7c0 1.9.7 3.3 1.8 4l2.8 1.5 1.8 1c-1.1-.6 0-2.5-.1-4.4v-5.5l-6.3-3.6z"/><g><linearGradient id="t" x1="470.776" x2="506.788" y1="510.078" y2="510.078" gradientUnits="userSpaceOnUse"><stop offset="0" stop-color="#f1eff6"/><stop offset=".197" stop-color="#4746a4" stop-opacity=".293"/><stop offset="1" stop-color="#000082" stop-opacity="0"/></linearGradient><path fill="url(#t)" d="m501.6 501.2 5.2 5-36 14.1v-20.4z"/><path fill="#111d33" d="M501.6 500.8v1.8L471 520.3l-16.6-10.6c-1.7-1-3.6-3.5-3.6-5.4l.5-12.6.2.1 27.1-15.7.9.5 1.3 11c0 1.4 1 3.1 2.2 3.8l18.6 9.4z"/><path fill="#525566" d="m451.6 491.8 27.1-15.7.8.5-27.1 15.7z"/><path fill="#1d2943" d="m471 518.5 30.6-17.7-.1 1.8-30.5 17.7z"/><path fill="#4c5c75" d="M501.5 500.8 471 518.5l-16.6-10.6c-1.2-.7-2.2-2.4-2.2-3.7l.2-11.9 27.1-15.7 1.3 11c0 1.4 1 3.1 2.2 3.7l18.5 9.5z"/><path fill="#111d33" d="m452.4 492.3-.2 11.9c0 1.4 1 3.1 2.2 3.8l16.6 10.6v1.8l-16.6-10.6c-1.7-1-3.6-3.5-3.6-5.4l.5-12.6 1.1.5z"/></g><path fill="#eaf0f6" d="m441.2 498.4 36-20.9 6.4 4.2-36 21z"/><path fill="#4c5c75" d="m523.1 445.1-113 65.3-.2-73.4c0-3.9 2.8-8.6 6.2-10.6l100.8-58.2c3.4-2 6.2-.4 6.2 3.5v73.4z"/><path fill="#fff" d="M520.2 443.4 413 505.3l-.2-71.7c0-1.4.7-2.7 1.9-3.4l102.5-58.9c1.3-.7 2.9.2 2.9 1.7l.1 70.4zM523.1 452.1c0 3.9-2.7 8.7-6.1 10.6l-100.7 58.1c-3.4 2-6.2.4-6.2-3.5v-7l113-65.2v7z"/><path fill="#b0b8cf" d="M469.3 483.2c0 1.8-1.3 4-2.8 4.9s-2.8.2-2.8-1.6 1.2-4 2.8-4.9c1.5-.9 2.8-.2 2.8 1.6z"/><path fill="#c9cee2" d="M419.9 491.7v2l-4.2 2.4v-2zM419.9 483.2v2l-4.2 2.4v-2zM419.9 474.7v2l-4.2 2.4v-2zM419.9 466.2v2l-4.2 2.4v-2zM419.9 457.6v2l-4.2 2.5v-2zM419.9 449.1v2l-4.2 2.5v-2.1zM419.9 440.6v2l-4.2 2.5V443zM419.9 432.1v2l-4.2 2.4v-2zM517.2 435.4v2l-4.1 2.5v-2.1zM517.2 426.9v2l-4.1 2.4v-2zM517.2 418.4v2l-4.1 2.4v-2zM517.2 409.9v2l-4.1 2.4v-2zM517.2 401.4v2l-4.1 2.4v-2zM517.2 392.8v2l-4.1 2.5v-2zM517.2 384.3v2l-4.1 2.5v-2.1zM517.2 375.8v2l-4.1 2.5v-2.1z"/><path fill="#dba660" d="m463.8 443 .1 27-39.8 22.9-.1-26.9z"/><path fill="#e3e7f0" d="m463.7 409.6.1 27-39.8 22.9v-26.9z"/><path fill="#8fabfe" d="m509 416.9.1 26.9-39.8 23v-26.9z"/><path fill="#95d895" d="m508.9 383.5.1 26.9-39.8 23v-26.9z"/><path fill="#fff" d="M506.1 390.4v18.9l-15.2 8.8v-8l4.7-2.7v-6.3l3.6-2.1v-4.6zM478.9 406l.1 4.7 3.5-2.1.1 6.3 4.7-2.7v7.9l-15.2 8.8-.1-18.9zM434.2 478.6c1.5-.9 2.8-.2 2.8 1.6 0 .3 0 .5-.1.8-.3 1.6-1.4 3.2-2.7 4-1.3.8-2.4.4-2.7-.9-.1-.2-.1-.4-.1-.7 0-1.8 1.2-3.9 2.8-4.8z"/><g><path fill="#fff" d="M451.6 468.5c1.5-.9 2.8-.2 2.8 1.6 0 .3 0 .6-.1.8-.3 1.6-1.4 3.2-2.7 3.9-1.3.8-2.4.4-2.7-.9-.1-.2-.1-.4-.1-.7.1-1.7 1.3-3.8 2.8-4.7z"/><path fill="#fff" d="M459.1 463.9c.1.1 1.6 2.7-3.2 5.5-.2.1-.5.3-.7.4 0-2.3-1.6-3.2-3.5-2.1s-3.4 3.8-3.4 6l-10.5 6.1c0-2.2-1.6-3-3.5-2-1.9 1.1-3.4 3.8-3.4 5.9l-.3.2c-.2.1-3.1 1.6-1.3-2.4l2.9-9.2c.1-.4 2.4-8.3 9.9-12.7.5-.3 1-.6 1.6-.8.5-.3 4.7-2.6 9.4-.6l.6.3c.8.4 1.5.9 2.3 1.5 0 0 .6-.1 1.3.2l.6.3c.5.5 1.1 1.5 1.2 3.4zm-12.3.3 5.3-3.1c-3-3.6-6.9-2-8.5-1.1v6l.6-.4v-.1c0-.8.6-1.8 1.2-2.2.9-.3 1.4 0 1.4.9m-4.5-3.3c-.2 0-.3.1-.5.2-5.5 3.2-7.1 9.8-7.1 10.2l3.7-2.1v-.1c0-.8.6-1.8 1.2-2.2.7-.4 1.3-.1 1.3.7v.1l1.4-.8v-6"/></g><path fill="#fff" d="M445.6 460.2c.7-.4 1.3-.1 1.3.7 0 .8-.6 1.8-1.2 2.2-.7.4-1.3.1-1.3-.7-.1-.8.5-1.8 1.2-2.2z"/><ellipse cx="439.6" cy="465.1" fill="#fff" rx="1.8" ry="1" transform="rotate(-59.834 439.67 465.095)"/><path fill="#fff" d="m599.3 370 .1 9.5 10.1-5.8-.1-6.2 12.4-7.1V376l-32.9 18.9v-9.3l3.8-2.2-.1-9.6z"/><path fill="#f4d6d4" d="m771.9 419.7-.7 3.9c-4.6 4.2-13 5.1-22.3 5.3v-1.8c0-1.7-.3-3.2-1-4.5 0 0-1.9-.5-5.5-1.4-3.6-1-7.8-14.7-4.8-21.7s1.2-19.4 1.2-19.4l16.7-3.6 23.4 21.3-7 21.9z"/><path fill="#f5c9c6" d="M768.9 416c0 .3-4.1 10.6-4.1 10.6l-14.9 2-1.5-2.8c0-1.7-.2-2.4-1.2-3.3 0 0 9.9-.4 14.8-3.9 4.9-3.6 6.9-2.8 6.9-2.6z"/><path fill="#fff" d="m773.1 415.4.1 1c.2 2.5-.2 5.1-1.4 7.4-6.7 12.8-29.1 7.5-29.1 7.5 2.1-1.2 4.8-3.8 5.8-6.2 15.3 3.5 20.4-7.1 21.1-8.4l-.3-.7 3.8-.6z"/><path fill="#1d2943" d="M781.3 402.1c-4.1 18.1-15.5 23.7-22.3 22.3-6.8-1.4-6.6-6.3-6-14.3.5-7.2-7.6-9.7-11.1-5.4-.5.7-1.7.6-2.1-.2-.9-1.9-1.7-5 .7-8 .1-.2.2-.3.3-.4 2-2.7.9-6.4-2.3-8-3.1-1.6-7.6-5.1-4-10.9 3.3-5.3 14.7-8.8 25.6-7.8 12.5 1.2 22.1 11.3 22.2 23.8 0 2.7-.3 5.6-1 8.9z"/><path fill="#fff" d="M654 339.4c.6-.4 1.2-.3 1.5.1.1.2.2.5.2.8 0 1.1-.8 2.4-1.7 2.9l-.1.1c-.9.4-1.6 0-1.6-1 0-1.1.7-2.4 1.7-2.9z"/><path fill="#fff" d="M659.8 343.3c1.1-.6 2-.1 2 1.1v5.2l-1.7 1v2.6c0 .4-.3.9-.6 1.1l-2.2 1.3c-.4.2-.6 0-.6-.4v-2.6l-12 6.9v2.6c0 .4-.3.9-.6 1.1l-2.2 1.3c-.4.2-.6 0-.6-.4v-2.6l-.7.4-1 .6v-5.2c0-.9.4-1.8 1-2.6.3-.4.6-.6 1-.9l-.2.1.9-7.3c.3-2.1 1.8-4.4 3.5-5.3l7.7-4.4 1.7-1 .7-.4c.8-.4 1.5-.6 2-.4.4.1.7.3.9.6.3.3.4.7.5 1.2l.8 5.6.1.7-.4.1zm-4.9 0c.5.1.8.5.8 1.2l2.4-1.4-.7-5.1c-.1-.6-.4-1-.9-1.2-.5-.2-1.1-.1-1.7.3l-1.8 1-6.8 3.9c-1.3.7-2.3 2.4-2.6 3.9l-.7 5.8 8.2-4.7 1.1-.7c0-1.1.8-2.4 1.7-2.9.1 0 .1-.1.2-.1h.8m-11.6 15.1c.9-.5 1.6-1.7 1.6-2.7 0-1-.7-1.4-1.6-.9-.9.5-1.6 1.7-1.6 2.7 0 1 .7 1.4 1.6.9m14.6-8.5c.9-.5 1.6-1.7 1.6-2.7 0-1-.7-1.4-1.6-.9s-1.6 1.7-1.6 2.7c0 1 .7 1.4 1.6.9M379.2 263.4c.8-.4 1.4-.4 1.8.2.2.2.3.6.3 1 0 1.3-.9 2.9-2 3.5l-.1.1c-1.1.5-1.9 0-1.9-1.2-.1-1.4.8-3 1.9-3.6z"/><path fill="#fff" d="M386.2 268.1c1.3-.8 2.4-.1 2.4 1.4v6.3l-2.1 1.2v3.1c0 .5-.3 1.1-.8 1.3l-2.6 1.5c-.4.2-.8.1-.8-.4v-3.1l-14.5 8.4v3.1c0 .5-.3 1.1-.8 1.3l-2.6 1.5c-.4.2-.8.1-.8-.4v-3.1l-.9.5-1.2.7v-6.3c0-1 .5-2.2 1.2-3.1.3-.4.7-.8 1.2-1l-.2.1 1.1-8.8c.4-2.5 2.1-5.2 4.2-6.4l9.2-5.3 2-1.2.8-.5c.9-.5 1.8-.7 2.5-.5.4.1.8.3 1.1.7.3.4.5.8.6 1.4l1 6.7.1.8-.1.1zm-5.8 0c.6.1.9.6.9 1.4l2.9-1.7-.9-6.1c-.1-.8-.5-1.3-1-1.5-.6-.2-1.3-.1-2.1.3l-2.1 1.2-8.2 4.8c-1.5.9-2.8 2.9-3.1 4.8l-.8 7.1 9.9-5.7 1.4-.8c0-1.3.9-2.9 2-3.5.1 0 .1-.1.2-.1.3-.2.6-.2.9-.2m-14.1 18.2c1-.6 1.9-2.1 1.9-3.3 0-1.2-.8-1.7-1.9-1.1-1 .6-1.9 2.1-1.9 3.3 0 1.2.9 1.7 1.9 1.1m17.6-10.2c1-.6 1.9-2.1 1.9-3.3 0-1.2-.9-1.7-1.9-1.1-1 .6-1.9 2.1-1.9 3.3.1 1.2.9 1.7 1.9 1.1"/><g><path fill="#111d33" d="m307.6 511.4-21.9-2.2c.4-9.1-15.1-37.7-12.9-37.7 2.3 0 9.6 2.2 14.1 5.7 2.8 2.1 6.5 8.5 8.7 12.9 1.3 2.5 2.8 4.9 4.5 7 4.9 5.9 7.5 14.3 7.5 14.3z"/><linearGradient id="u" x1="1150.9" x2="1202.144" y1="846.251" y2="843.929" gradientTransform="matrix(1.0274 .04182 -.3756 .9424 -634.077 -150.543)" gradientUnits="userSpaceOnUse"><stop offset="0" stop-color="#f1eff6"/><stop offset="1" stop-color="#000082" stop-opacity="0"/></linearGradient><path fill="url(#u)" d="M262.5 689c-2.3-.1-4.5-.1-6.7 0l-5.3 10.8c2.3.3 9.8 1.2 12.4 1.3 13 .4 24.1.6 24-5.8 0-3.4-11.4-5.9-24.4-6.3z" opacity=".7"/><linearGradient id="v" x1="1170.241" x2="1221.485" y1="822.944" y2="820.622" gradientTransform="matrix(1.0274 .04182 -.3756 .9424 -634.077 -150.543)" gradientUnits="userSpaceOnUse"><stop offset="0" stop-color="#f1eff6"/><stop offset="1" stop-color="#000082" stop-opacity="0"/></linearGradient><path fill="url(#v)" d="M291.1 667.8c-2.3-.1-4.5-.1-6.7 0l-1.6 3.3v4.9c1.8.9 3.4 2.1 4.6 3.7 1.7.2 3.2.3 4.1.3 13 .4 24.1.6 24-5.8 0-3.5-11.4-6-24.4-6.4z" opacity=".7"/><path fill="#939fbc" d="M254.2 680.8s7 12.3 4.4 16.4c-2.6 4.1-12.1 4.7-14.1-3.5s-1.9-10.2-2.8-12.1c-.9-1.9 3.2-5.4 3.5-5.4l9 4.6zM279.9 664.3s15.5 6.9 14.7 12.4c-.8 5.5-11 2.6-14.4 0s-5.5-3.6-8.9-3.1-8.2-1-8.2-3.9c-.1-2.9 1.5-5.6 1.5-5.6l7.7-4.6 7.6 4.8z"/><path fill="#f5c9c6" d="M265.4 476.5c.3 2.5-.5 5.3-1.7 7.4 0 0-11.9 3.8-17.2-5.2l-1.7-17.1 4.4 6.7s1.1 1 2.8 2.2c3 2.2 8 5.3 12.9 6 0-.1.4 0 .5 0z"/><path fill="#111d33" d="M264.5 664.2c7.5 3.4 10.8 3.9 17.2.9 0 0 1.9-35.2 6.1-63.9 4.2-28.7-2.8-45.8-2.8-45.8l-16.5 1.8-6.6 49.8 2.6 57.2z"/><path fill="#fff" d="M247.9 479.6s6 8 6 8.2c0 .1 3.3 13 3.6 13.3.3.3 9.2 14 9.2 14l8 6.1s2.4-3.7 2.4-3.9.3-15.6.1-15.9c-.1-.2-6-22.6-6-22.6-5.1 9.7-13.6 8.8-23.3.8z"/><path fill="#f45170" d="m263.7 483.9 4.8 3.7-1.2 3.1 8.9 20.6-1.5 6.6-3.4-4.9-6.3-21.8-2.8-2z"/><path fill="#1d2943" d="M236.3 576.2s6.9 29.3 4.7 49.5-3.6 39.5.7 55.9c4.8 3.1 8.4 1.4 12.7-.3 0 0 18.8-100.3 18.2-107-.4-6.6-36.3 1.9-36.3 1.9z"/><path fill="#4c5c75" d="M277.7 503.9c.3.3-1.4 10.1-2.8 14.3-.2.4 1.4 11.7 1.4 11.7l-4.4 4.6 3.2 39c.1.3.3.5.4.7 1.7 2.5 5.2 1.9 10.2.9 5.5-1.1 5-8.7 5-8.7s-1.1-18.7-3-28.2c-.9-4.2-1.3-15.4-1.7-27.1.6-10.4.4-20.3-1.3-29.3-.8-4.2-3.6-7.8-7.5-9.3-5.3-2-11.7-2.8-11.7-2.8l6 7.2s2.4 13.5 2.7 13.5c.3.1 3.3 13.2 3.5 13.5z"/><path fill="#1d2943" d="m271.9 534.5 3.2 39c.1.3.3.5.4.7 0 0 .1-.1.1-.2l.9-43.8-1.7-12.1-2.9 16.4z"/><path fill="#4c5c75" d="M237.3 577.1c6.7 2.5 28.8 9.4 37.8-3.5l-.3-54.8c-.7.3-18-31.2-29.9-46.6l-4 6.3s-13.6 10.8-14 13.9c-.4 3.1 10.5 24.7 11.7 33.8 1.1 8.6.2 36.7-2.8 48.2-.1 1.1.4 2.3 1.5 2.7z"/><path fill="#dedffb" d="M243.7 473.8c.3-.9.9-1.6 1.7-2.2l1.4-1s7.4 12.3 17 13.2l-1.7 6.2s-11.1-3.4-15.9-9c-2.9-3.2-2.9-5.7-2.5-7.2z"/><path fill="#dedffb" d="M263.7 483.9s2.8-5.8 1.4-14.1l6.2 10c-.3 3-1.1 5.7-2.5 8l-5.1-3.9z"/><path fill="#1d2943" d="M247.6 491.4h5.8l-3.2 4.8 24.7 22.8c.7-1.9-15.5-30.4-30.1-43.4-1-.9-1-2.2-.2-3.2l1.2-.9-.8-1.6s-1.2.8-1.5 1.1c-2.7 3.3-3.1 7.5-1.1 11.1l5.2 9.3z"/><path fill="#1d2943" d="M274.6 518.5c2.6-16-7.1-48.2-7.1-48.2 9.7-2.6 12.4 12.5 12.4 12.5l-4.1 3 4.6 1.4c1.1 10.9-3.7 25.5-5.6 31.9l-.2-.6z"/><path fill="#f5c9c6" d="M271.1 508.2v9.3c-2.8.6-5.7 1.8-8.1 3.1l-5.6-9.7c4.6-1.4 9.1-2.3 13.7-2.7z"/><path fill="#111d33" d="m282.5 520.1-11.4 13.8s-7.3 6.8-16.4.2-25.5-25.2-27.8-32.2c-1.4-4.3-1.5-12.6 5.5-12.9 13.5-.6 30.7 31.7 30.7 31.7 2.6-1.5 5.3-2.6 8.1-3.1l11.3 2.5z"/><path fill="#f8f9fe" d="M281.8 508c-3.1 0-6.6.1-10.6.3-.7 3-.7 6.1 0 9.3l10.6 3.2V508z"/><path fill="#f5c9c6" d="m295.5 508.1-4.8 4.2-8.5-4.7 4.1-7.9c1.9-1.9 11 6.4 9.2 8.4z"/><path fill="#1d2943" d="M308 521.7c-2.6 3.6-7.3 5-11.5 3.7l-24-7.2c-.8-3.6-.8-7 0-10.3 33.8-1.5 35.1 3.4 35.1 3.4 2.9 4.4 2.2 7.9.4 10.4z"/><path fill="#f4d6d4" d="M247.6 467.6s1.1 1.1 3 2.5c3.3 2.6 8.7 6.2 14.1 7 0 0 .1.1.2.1 1.6.2 3.2.3 4.7-.2 7.2-2.4 5.2-30.1 2.4-33.8-4.4 3.6-11.1 7.1-18.9 5.3-.2.1-.4.3-.5.5-.6.7-1 1.5-1.3 2.4-1.1 4.2-6.6-3.5-6.6-3.5l2.9 7.1s-.3-1.9-3.3 1.3 3.3 11.3 3.3 11.3z"/><path fill="#8a4852" d="M247.5 474.2s-4-16.2-.5-17.2c3.4-1 2.8 6.6 2.8 6.6h2.1v-4.3c3.2-2 3.5-7.4 3.5-7.4s7.5 1.6 14.1-.1c6.7-1.7 6.9-4.5 6.9-4.5 3.3-12-8.2-13-15.9-14.4-7.7-1.4-17.9 2.3-20.6 16.2-2.8 14.1 7.6 25.1 7.6 25.1z"/></g><path fill="#bf7d5a" d="M495.5 239.1c-1.2.7 4.2-2.5-11.4 6.6l-2.7-1.6-.1-20.8 11.4-6.6 2.7 1.5.1 20.9z"/><g><path fill="#aa6256" d="m484.1 245.7-2.7-1.6-.1-20.7 2.7 1.5z"/><path fill="#dba660" d="m484 224.9-2.7-1.5 11.5-6.6 2.6 1.5z"/><path fill="#bf7d5a" d="m495.5 239.1-5.5 3.2-5.9 3.4-.1-20.8 5.9-3.4 5.5-3.2z"/></g><path fill="#1d2943" d="m512.6 236.9-.7 4.6-.8 5-26-5.9v-11l9.4-5.6z"/><path fill="#4c5c75" d="m512.6 236.9-.7 4.6-26.8-11.9 9.4-5.6z"/><path fill="#1d2943" d="M485.1 229.6v11l26 5.8.8-4.9z"/><g><path fill="#4c5c75" d="M511.1 243v6c0 .8.5 1.6 1.6 2.3 2.1 1.2 5.6 1.2 7.7 0 1.1-.6 1.6-1.4 1.6-2.2v-6h-10.9z"/></g><g><path fill="#e9e7fc" d="M523.1 238.9v7.4c0 1-.6 1.9-1.9 2.7-2.5 1.5-6.7 1.5-9.3 0-1.3-.8-1.9-1.7-1.9-2.7v-7.4h13.1z"/><path fill="#fff" d="M521.2 236.2c2.6 1.5 2.6 3.9 0 5.4-2.5 1.5-6.7 1.5-9.2 0-2.6-1.5-2.6-3.9 0-5.4 2.5-1.5 6.6-1.5 9.2 0z"/></g><g><path fill="#4c5c75" d="M521.6 224.7v13.8c0 .7-.5 1.5-1.5 2-1.9 1.1-5.1 1.1-7.1 0-1-.6-1.5-1.3-1.5-2.1v-13.8c0 .7.5 1.5 1.5 2.1 2 1.1 5.1 1.1 7.1 0 1-.5 1.5-1.3 1.5-2z"/><path fill="#2d2c2b" d="M520.2 222.6c2 1.1 2 3 0 4.1-1.9 1.1-5.1 1.1-7.1 0s-2-3 0-4.1c1.9-1.1 5.1-1.1 7.1 0z"/></g><path fill="#1d2943" d="M562.5 230.9s2.4 2 1.6 4.8c-.9 2.9-2.5 4.4-6.8 2-4.5-2.6-2.1-9.7-2.1-9.7 2.5.6 6.1 1.8 7.3 2.9z"/><g><path fill="#e9e7fc" d="m555.7 230-19 20-38.6-36.5c-1.5-1.4-2-3.8-1.3-6.8 1.4-6.1 7.4-12.4 13.4-14.2 3-.9 5.5-.5 7 1l38.5 36.5z"/><path fill="#fff" d="M557.1 236.8c-1.4 6.1-7.4 12.4-13.4 14.2-6 1.8-9.7-1.7-8.3-7.7 1.4-6.1 7.4-12.4 13.4-14.2 6-1.9 9.7 1.6 8.3 7.7z"/><path fill="#497bfe" d="M540.3 248c-2.4-.6-2-3.4-1.7-4.6 1.1-4.6 5.9-9.7 10.5-11.1 1.1-.3 2.2-.4 3-.2 2.4.6 2 3.4 1.7 4.6-1.1 4.6-5.9 9.7-10.5 11.1-1.1.3-2.2.4-3 .2z"/><path fill="#1d2943" d="M543.6 243.6c-1.1-.3-.9-1.5-.8-2.1.5-2.1 2.6-4.4 4.7-5 .5-.2 1-.2 1.3-.1 1.1.3.9 1.5.8 2.1-.5 2.1-2.6 4.4-4.7 5-.5.1-1 .2-1.3.1z"/></g><path fill="#4c5c75" d="M562.5 230.9c-3.1-2-6.6-2-10.3-.9-2.4.7-5 1.9-7.5 3.2-1.3.7-2.6 1.4-4 2.2-4.5 2.2-8.7 2.4-12.5 0l-28.4-26.8c-1.5-1.5-2.4-3.5-2.3-5.6v-.1c.1-.9.3-1.8.7-2.6 1.3-2.7 3-4.8 5-6.5 1.5-1.3 3.1-2.3 4.8-3.2.6-.3 1.2-.6 1.9-.8 1.5-.5 3.1-.7 4.7-.6h.1c2.6.2 5.1 1.4 7 3.2l40.8 38.5z"/><path fill="#e3e7f0" d="M565.3 278.9c.2 0 .4 0 .5-.1.4-.2.5-.6.3-1l-13.3-24.5c-.2-.4-.6-.5-1-.3s-.5.6-.3 1l13.3 24.5c.1.2.3.3.5.4zM577.2 268.9c.2.1.5 0 .7-.2.3-.3.3-.8 0-1l-19.5-18.1c-.3-.3-.8-.3-1 0-.3.3-.3.8 0 1l19.5 18.1c.1.1.2.2.3.2zM586.5 258.3c.3.1.7-.1.8-.4.2-.4 0-.8-.3-1l-25.1-13c-.4-.2-.8 0-1 .3-.2.4 0 .8.3 1l25.1 13c.1 0 .2 0 .2.1z"/><linearGradient id="w" x1="159.116" x2="177.01" y1="649.304" y2="649.304" gradientUnits="userSpaceOnUse"><stop offset="0" stop-color="#f1eff6"/><stop offset="1" stop-color="#b6bce1" stop-opacity="0"/></linearGradient><path fill="url(#w)" d="M159.1 644.8H177v9h-17.9z"/><g><path fill="#ef7b56" d="M167 641.4v7.8c0 .4-.3.8-.7 1l-5.3 3.1c-1 .6-2.6.6-3.6 0l-5.3-3.1c-.5-.3-.8-.7-.8-1v-7.9l15.7.1z"/><path fill="#ffd06c" d="M166.3 640.4c1 .6 1 1.5 0 2.1l-5.3 3.1c-1 .6-2.6.6-3.6 0l-5.3-3.1c-1-.6-1-1.5 0-2.1l5.3-3.1c1-.6 2.6-.6 3.6 0l5.3 3.1z"/></g><linearGradient id="x" x1="333.323" x2="351.217" y1="555.572" y2="555.572" gradientUnits="userSpaceOnUse"><stop offset="0" stop-color="#f1eff6"/><stop offset="1" stop-color="#b6bce1" stop-opacity="0"/></linearGradient><path fill="url(#x)" d="M333.3 551.1h17.9v9h-17.9z"/><g><path fill="#ef7b56" d="M341.3 547.7v7.8c0 .4-.3.8-.7 1l-5.3 3.1c-1 .6-2.6.6-3.6 0l-5.3-3.1c-.5-.3-.8-.7-.7-1v-7.9l15.6.1z"/><path fill="#ffd06c" d="M340.5 546.7c1 .6 1 1.5 0 2.1l-5.3 3.1c-1 .6-2.6.6-3.6 0l-5.3-3.1c-1-.6-1-1.5 0-2.1l5.3-3.1c1-.6 2.6-.6 3.6 0l5.3 3.1z"/></g><linearGradient id="y" x1="400.228" x2="419.065" y1="674.168" y2="674.168" gradientUnits="userSpaceOnUse"><stop offset="0" stop-color="#f1eff6"/><stop offset="1" stop-color="#b6bce1" stop-opacity="0"/></linearGradient><path fill="url(#y)" d="M400.2 669.4H419v9.4h-18.8z"/><g><path fill="#b0b8cf" d="M408.6 665.9v8.3c0 .4-.3.8-.8 1.1l-5.5 3.2c-1 .6-2.7.6-3.8 0l-5.6-3.2c-.5-.3-.8-.7-.8-1.1v-8.3h16.5z"/><path fill="#e3e7f0" d="M407.8 664.8c1 .6 1 1.6 0 2.2l-5.5 3.2c-1 .6-2.7.6-3.8 0L393 667c-1-.6-1-1.6 0-2.2l5.5-3.2c1-.6 2.7-.6 3.8 0l5.5 3.2z"/></g><linearGradient id="z" x1="686.73" x2="704.21" y1="602.503" y2="602.503" gradientUnits="userSpaceOnUse"><stop offset="0" stop-color="#f1eff6"/><stop offset="1" stop-color="#b6bce1" stop-opacity="0"/></linearGradient><path fill="url(#z)" d="M686.7 598.1h17.5v8.8h-17.5z"/><g><path fill="#ef7b56" d="M694.5 594.8v7.7c0 .4-.2.7-.7 1l-5.1 3c-1 .5-2.5.5-3.5 0l-5.2-3c-.5-.3-.7-.7-.7-1v-7.7h15.2z"/><path fill="#ffd06c" d="M693.8 593.8c1 .6 1 1.5 0 2l-5.1 3c-1 .6-2.5.6-3.5 0l-5.2-3c-1-.6-1-1.5 0-2l5.1-3c1-.6 2.5-.6 3.5 0l5.2 3z"/></g><path fill="#fff" d="M485.7 434.5v6.8l7-4v6.7l9.2-5.3v6.8l-29.6 17.1-.1-20.3z"/><linearGradient id="A" x1="790.624" x2="802.145" y1="336.745" y2="336.745" gradientUnits="userSpaceOnUse"><stop offset="0" stop-color="#f1eff6"/><stop offset="1" stop-color="#b6bce1" stop-opacity="0"/></linearGradient><path fill="url(#A)" d="M790.6 333.3h11.5v6.9h-11.5z"/><g><path fill="#ef7b56" d="M796.8 330.7v6.1c0 .3-.2.6-.6.8l-4.1 2.4c-.8.4-2 .4-2.8 0l-4.1-2.4c-.4-.2-.6-.5-.6-.8v-6.1h12.2z"/><path fill="#ffb961" d="M796.2 329.8c.8.4.8 1.2 0 1.6l-4.1 2.4c-.8.4-2 .4-2.8 0l-4.1-2.4c-.8-.4-.8-1.2 0-1.6l4.1-2.4c.8-.4 2-.4 2.8 0l4.1 2.4z"/></g><linearGradient id="B" x1="529.435" x2="539.311" y1="324.691" y2="324.691" gradientUnits="userSpaceOnUse"><stop offset="0" stop-color="#f1eff6"/><stop offset="1" stop-color="#b6bce1" stop-opacity="0"/></linearGradient><path fill="url(#B)" d="M529.4 321.7h9.9v6h-9.9z"/><g><path fill="#ef7b56" d="M534.7 319.5v5.2c0 .2-.2.5-.5.7l-3.5 2c-.6.4-1.7.4-2.4 0l-3.5-2c-.3-.2-.5-.4-.5-.7v-5.2h10.4z"/><path fill="#ffb961" d="M534.2 318.8c.7.4.7 1 0 1.4l-3.5 2c-.7.4-1.7.4-2.4 0l-3.5-2c-.7-.4-.7-1 0-1.4l3.5-2c.7-.4 1.7-.4 2.4 0l3.5 2z"/></g></svg>