<svg width="264" height="264" viewBox="0 0 264 264" fill="none" xmlns="http://www.w3.org/2000/svg">
<path d="M214.58 260H49.42C24.336 260 4 239.664 4 214.58V49.42C4 24.336 24.336 4 49.42 4H214.58C239.664 4 260 24.336 260 49.42V214.58C260 239.664 239.664 260 214.58 260Z" fill="#FEFDEF"/>
<path d="M242 106.108V122.108" stroke="#1F212B" stroke-width="4" stroke-linecap="round" stroke-linejoin="round"/>
<path d="M242 90.1079V98.1079" stroke="#1F212B" stroke-width="4" stroke-linecap="round" stroke-linejoin="round"/>
<path d="M242 134.108V208.792C242 227.132 227.132 242 208.792 242H55.208C36.868 242 22 227.132 22 208.792V90.1079" stroke="#1F212B" stroke-width="4" stroke-linecap="round" stroke-linejoin="round"/>
<path d="M216 4.10791H48C23.7 4.10791 4 23.8079 4 48.1079V74.1079H260V48.1079C260 23.8079 240.3 4.10791 216 4.10791Z" fill="#E85654"/>
<path d="M214.58 260H49.42C24.336 260 4 239.664 4 214.58V49.42C4 24.336 24.336 4 49.42 4H214.58C239.664 4 260 24.336 260 49.42V214.58C260 239.664 239.664 260 214.58 260Z" stroke="#1F212B" stroke-width="8"/>
<path d="M130 74.1079H256" stroke="#1F212B" stroke-width="4" stroke-linecap="round" stroke-linejoin="round"/>
<path d="M118 74.1079H78" stroke="#1F212B" stroke-width="4" stroke-linecap="round" stroke-linejoin="round"/>
<path d="M46 74.1079H4" stroke="#1F212B" stroke-width="4" stroke-linecap="round" stroke-linejoin="round"/>
<path d="M66 74.1079H62" stroke="#1F212B" stroke-width="4" stroke-linecap="round" stroke-linejoin="round"/>
</svg>
