<?xml version="1.0" encoding="utf-8"?>
<svg xmlns="http://www.w3.org/2000/svg" viewBox="0 0 100 100" width="500" height="500">
  <path fill="#fff" d="M22.064 57.586A0.886 0.886 0 1 0 22.064 59.358000000000004A0.886 0.886 0 1 0 22.064 57.586Z" />
  <path fill="#f1bc19" d="M22.559 65.26A0.886 0.886 0 1 0 22.559 67.032A0.886 0.886 0 1 0 22.559 65.26Z" />
  <path fill="#c0e5e4" d="M51.599 14.353000000000002A37.445 37.445 0 1 0 51.599 89.243A37.445 37.445 0 1 0 51.599 14.353000000000002Z" />
  <path fill="#fbcd59" d="M78.947 76.324A1.884 1.884 0 1 0 78.947 80.092 1.884 1.884 0 1 0 78.947 76.324zM15.786 61.254A4.007 4.007 0 1 0 15.786 69.268 4.007 4.007 0 1 0 15.786 61.254z" />
  <path fill="#00a5a5" d="M26.025 87.511A1.884 1.884 0 1 0 26.025 91.279A1.884 1.884 0 1 0 26.025 87.511Z" />
  <path fill="#fff" d="M19.528 50.61000000000001A2.541 2.541 0 1 0 19.528 55.692A2.541 2.541 0 1 0 19.528 50.61000000000001Z" />
  <path fill="#d8ad8f" d="M66.699,69.976c-0.74-0.517-10.23-3.802-10.23-3.802c-0.603-0.16-0.939-0.648-1.046-1.193 c-0.13-0.658-0.197-1.71-0.232-2.751c2.555-1.402,4.557-3.457,6.123-6.005c0.26-0.423,0.464-1.185,0.469-1.68 c0.01-0.983,0.01-1.967,0.012-2.95c0.606-0.085,1.025-0.43,1.264-1.184c0.395-1.245,0.983-3.843,0.991-3.865 c0.529-1.613-0.256-2.446-1.79-2.416c0.191-0.119,0.42-10.879,0.407-10.879c0.085-3.515-5.862-9.889-8.707-9.889 c-1.644,0-3.105,0.704-4.049,1.796c-1.049-0.657-2.367-1.052-3.803-1.052c-3.412,0-6.178,2.212-6.178,4.94 c0,0.12,0.012,0.239,0.023,0.357c-0.802,0.384-1.419,1.009-1.691,1.818c-0.268,0.796,0.611,3.021,0.578,3.1l0,0 c-0.224,0.002-0.652,0.431-0.715,1.681c-0.024,0.484-0.309,7.923,0.099,8.124c-1.534-0.03-2.315,0.808-1.786,2.42 c0.007,0.023,0.596,2.62,0.991,3.865c0.266,0.838,0.752,1.172,1.471,1.203c0.007,0.831,0.009,1.662-0.027,2.491 c-0.045,1.043,0.269,1.954,0.855,2.802c1.496,2.167,3.386,3.938,5.675,5.272c-0.035,1.042-0.102,2.108-0.229,2.804 c-0.1,0.547-0.443,1.033-1.046,1.193l-7.758,2.665c-0.777,0.213-1.523,0.516-2.178,0.94c-3.425,2.212-3.627,6.617-3.56,6.867 h19.667h19.667C70.032,76.395,69.882,72.2,66.699,69.976z" />
  <path fill="#b2876b" d="M50.294,76.553h19.531c0.066-0.241-0.083-4.288-3.244-6.434c-0.735-0.499-10.159-3.668-10.159-3.668 c-0.599-0.155-0.989-0.589-1.214-1.077c-0.372-0.807-0.211-3.252-0.211-3.252s-2.328,1.408-4.224,1.768 c-1.86,0.184-5.059-1.619-5.059-1.619s-0.164,2.381-0.291,3.052c-0.099,0.527-0.658,0.973-1.257,1.128l-7.704,2.571 c-0.771,0.205-1.512,0.498-2.163,0.907c-3.401,2.134-3.602,6.383-3.535,6.624H50.294z" />
  <path fill="#fff" d="M51.683,88.939c6.789,0,13.15-1.816,18.641-4.975c-0.211-7.658-0.002-12.745-3.768-13.902 C65.73,69.809,56.25,66,56.25,66c-0.792,1.792-3.692,6.866-5.917,6.869c-1.881,0.003-5.167-5.078-6.083-6.744 c-5.875,2.25-12.188,2.875-13.261,8.459c-0.074,0.307-0.198,5.701-0.326,7.901C36.657,86.558,43.891,88.939,51.683,88.939z" />
  <path fill="#472b29" d="M48.396 43.171c-1.999-.567-5.397-.712-7.419-.388-.115.019-.197.101-.196.198.001.096.085.178.2.195.041.006 5.091.609 6.678 1.078.027.008.055.012.082.012.079 0 .156-.032.202-.088l.576-.705c.042-.052.053-.116.028-.175C48.524 43.238 48.468 43.192 48.396 43.171zM52.386 43.171c1.999-.567 5.397-.712 7.419-.388.115.019.197.101.196.198-.001.096-.085.178-.2.195-.041.006-5.091.609-6.678 1.078-.027.008-.055.012-.082.012-.079 0-.156-.032-.202-.088l-.576-.705c-.042-.052-.053-.116-.028-.175C52.259 43.238 52.315 43.192 52.386 43.171zM44.872 45.431c-.503 0-.944.329-1.199.825.064-.019.129-.033.199-.033.412 0 .747.369.747.823s-.334.823-.747.823c-.135 0-.26-.043-.369-.112.176.746.723 1.289 1.37 1.289.79 0 1.43-.809 1.43-1.808C46.302 46.24 45.662 45.431 44.872 45.431zM55.816 45.431c-.429 0-.813.24-1.075.618.082-.034.17-.055.263-.055.412 0 .747.369.747.823 0 .455-.334.823-.747.823-.256 0-.481-.142-.616-.358.019.978.65 1.764 1.428 1.764.79 0 1.43-.809 1.43-1.808C57.246 46.24 56.606 45.431 55.816 45.431z" />
  <path fill="#472b29" d="M50.317,54.74c0.836,0,1.647-0.361,2.171-0.967c0.117-0.136,0.101-0.343-0.037-0.46 c-0.138-0.116-0.346-0.101-0.463,0.033c-0.36,0.407-0.969,0.64-1.671,0.64s-1.31-0.233-1.671-0.64 c-0.114-0.129-0.327-0.147-0.464-0.032c-0.137,0.116-0.153,0.323-0.035,0.459C48.67,54.378,49.481,54.74,50.317,54.74z" opacity=".41" />
  <path fill="#472b29" d="M50.582,64.013c-1.97,0-5.142-1.777-5.282-1.856c-0.12-0.068-0.162-0.221-0.095-0.341 c0.067-0.121,0.22-0.161,0.341-0.095c0.035,0.02,3.515,1.978,5.271,1.78c1.793-0.182,4.398-1.799,4.424-1.815 c0.115-0.071,0.271-0.037,0.345,0.079c0.073,0.117,0.038,0.271-0.079,0.345c-0.11,0.069-2.729,1.695-4.639,1.89 C50.776,64.008,50.68,64.013,50.582,64.013z" />
  <path fill="#b3b2c3" d="M36.5 86c-.276 0-.5-.224-.5-.5v-6c0-.276.224-.5.5-.5s.5.224.5.5v6C37 85.776 36.776 86 36.5 86zM64.5 87c-.276 0-.5-.224-.5-.5v-7c0-.276.224-.5.5-.5s.5.224.5.5v7C65 86.776 64.776 87 64.5 87z" />
  <path fill="#ba8964" d="M43.262 51.248A1.957 1.987 0 1 0 43.262 55.222 1.957 1.987 0 1 0 43.262 51.248zM58.315 51.248A1.957 1.987 0 1 0 58.315 55.222 1.957 1.987 0 1 0 58.315 51.248z" opacity=".8" />
  <path fill="#8e7469" d="M47.291 49.043000000000006A.221.224 0 1 0 47.291 49.491.221.224 0 1 0 47.291 49.043000000000006zM47.512 50.753A.221.224 0 1 0 47.512 51.20099999999999.221.224 0 1 0 47.512 50.753zM49.03 49.818000000000005A.221.224 0 1 0 49.03 50.266.221.224 0 1 0 49.03 49.818000000000005zM52.222 49.786A.221.224 0 1 0 52.222 50.233999999999995.221.224 0 1 0 52.222 49.786zM53.088 51.27A.221.224 0 1 0 53.088 51.717999999999996.221.224 0 1 0 53.088 51.27zM54.121 49.80500000000001A.221.224 0 1 0 54.121 50.253.221.224 0 1 0 54.121 49.80500000000001z" opacity=".8" />
  <path fill="#472b29" d="M39.217 51.902c-.153 0-.284-.117-.299-.272l-.692-7.542c-.015-.165.106-.311.271-.326.16-.024.311.107.326.271l.692 7.542c.015.165-.106.311-.271.326C39.235 51.902 39.226 51.902 39.217 51.902zM61.695 51.797c-.006 0-.012 0-.019 0-.165-.011-.291-.152-.281-.318l.448-7.36c.01-.165.124-.282.318-.281.165.011.291.152.281.318l-.448 7.36C61.985 51.675 61.853 51.797 61.695 51.797z" />
  <path fill="#472b29" d="M51.642,89.396c-7.648,0-15.025-2.254-21.336-6.519c-0.15-0.102-0.233-0.277-0.218-0.458 c0.087-0.983,0.175-2.657,0.259-4.276c0.126-2.417,0.191-3.554,0.266-3.951c0.005-0.05,0.017-0.1,0.036-0.146 c0.438-1.437,1.378-3.4,3.371-4.688c0.652-0.422,1.433-0.759,2.317-1.002l7.728-2.655c0.524-0.142,0.673-0.568,0.717-0.812 c0.097-0.525,0.168-1.363,0.21-2.435c-2.209-1.337-4.084-3.106-5.575-5.266c-0.682-0.987-0.99-2.004-0.943-3.107 c0.029-0.677,0.033-1.355,0.029-2.034c-0.712-0.168-1.188-0.659-1.451-1.487c-0.233-0.737-0.572-2.054-0.979-3.808 c-0.39-1.209-0.128-1.914,0.159-2.303c0.24-0.324,0.695-0.697,1.54-0.8c-0.114-1.586-0.209-5.628-0.209-6.525 c0-1.783,0.346-2.615,0.711-2.997c-0.596-1.209-0.721-2.265-0.375-3.101c0.342-0.826,0.902-1.481,1.632-1.914 c-0.001-0.023-0.001-0.046-0.001-0.069c0-2.999,2.996-5.439,6.678-5.439c1.338,0,2.613,0.317,3.715,0.921 c1.093-1.035,2.649-1.42,4.054-1.657c1.063-0.178,2.375,0.426,3.779,1.76c2.662,2.528,5.398,7.419,5.075,10.181 c-0.056,0.476-0.01,2.647,0.031,4.563c0.05,2.371,0.074,3.611,0.05,4.283c0.848,0.103,1.303,0.476,1.543,0.8 c0.286,0.388,0.548,1.091,0.169,2.245l-0.021,0.098c-0.412,1.77-0.738,3.036-0.969,3.763c-0.232,0.732-0.648,1.21-1.241,1.424 v0.102c-0.001,0.821-0.003,1.643-0.011,2.463c-0.006,0.601-0.244,1.451-0.543,1.937c-1.612,2.625-3.643,4.652-6.038,6.03 c0.043,1.079,0.114,1.874,0.212,2.368c0.049,0.246,0.202,0.678,0.685,0.807c1.628,0.566,9.608,3.363,10.375,3.867 c3.174,2.091,3.3,4.146,3.391,5.646l0.013,0.194l0.358,8.504c0.008,0.187-0.089,0.362-0.251,0.455 C64.833,87.654,58.283,89.396,51.642,89.396z M31.108,82.212c6.091,4.047,13.184,6.185,20.533,6.185 c6.365,0,12.646-1.644,18.18-4.757l-0.356-8.375c-0.087-1.433-0.187-3.057-2.942-4.871c-0.512-0.337-6.479-2.478-10.119-3.748 c-0.699-0.185-1.212-0.761-1.371-1.568c-0.117-0.591-0.198-1.544-0.242-2.831c-0.006-0.188,0.094-0.364,0.26-0.455 c2.358-1.295,4.356-3.256,5.938-5.829c0.206-0.336,0.391-1,0.395-1.423c0.008-0.818,0.01-1.637,0.011-2.454l0.001-0.492 c0.001-0.249,0.184-0.46,0.431-0.494c0.32-0.045,0.646-0.178,0.856-0.841c0.153-0.482,0.442-1.514,0.947-3.687 c0.028-0.119,0.047-0.188,0.048-0.191c0.133-0.404,0.239-0.972-0.025-1.33c-0.21-0.283-0.651-0.446-1.282-0.421 c-0.202,0.013-0.425-0.143-0.489-0.357c-0.032-0.111-0.025-0.227,0.015-0.328c0.055-0.433,0.007-2.71-0.032-4.551 c-0.046-2.137-0.088-4.155-0.025-4.7c0.256-2.185-2.106-6.811-4.77-9.34c-1.149-1.09-2.188-1.621-2.924-1.498 c-1.359,0.229-2.867,0.602-3.755,1.629c-0.162,0.186-0.437,0.227-0.644,0.097c-1.019-0.639-2.241-0.976-3.537-0.976 c-3.131,0-5.678,1.991-5.678,4.439c0,0.095,0.009,0.188,0.018,0.283c0.02,0.208-0.091,0.435-0.279,0.525 c-0.653,0.313-1.153,0.852-1.445,1.558c-0.259,0.626-0.075,1.549,0.518,2.599c0.073,0.13,0.119,0.35,0.065,0.488 c-0.072,0.19-0.253,0.317-0.456,0.322c0.04,0.012-0.387,0.381-0.387,2.306c0,1.545,0.153,6.448,0.247,6.888 c0.032,0.149-0.005,0.309-0.103,0.426c-0.098,0.118-0.289,0.172-0.395,0.186c-0.628-0.027-1.067,0.138-1.277,0.421 c-0.266,0.359-0.159,0.929-0.023,1.343c0.005,0.015,0.031,0.125,0.035,0.14c0.395,1.704,0.734,3.028,0.957,3.73 c0.217,0.685,0.55,0.835,1.017,0.854c0.266,0.012,0.477,0.229,0.479,0.496c0.007,0.839,0.009,1.679-0.026,2.517 c-0.038,0.878,0.213,1.694,0.766,2.496c1.465,2.121,3.32,3.845,5.516,5.124c0.158,0.092,0.254,0.265,0.248,0.448 c-0.042,1.278-0.122,2.247-0.236,2.877c-0.146,0.797-0.674,1.39-1.41,1.587l-7.725,2.654c-0.815,0.225-1.502,0.521-2.068,0.887 c-1.751,1.132-2.578,2.886-2.965,4.164c-0.002,0.007-0.003,0.014-0.006,0.021c-0.061,0.261-0.164,2.23-0.246,3.813 C31.269,79.673,31.189,81.194,31.108,82.212z" />
  <path fill="#fff" d="M81.114 32.917A0.684 0.684 0 1 0 81.114 34.285A0.684 0.684 0 1 0 81.114 32.917Z" />
  <path fill="#f1bc19" d="M78.485 13.682A.886.886 0 1 0 78.485 15.453999999999999.886.886 0 1 0 78.485 13.682zM83.926 12.716A4.007 4.007 0 1 0 83.926 20.729999999999997 4.007 4.007 0 1 0 83.926 12.716z" />
  <path fill="#00a5a5" d="M87.933 23.909A1.884 1.884 0 1 0 87.933 27.677A1.884 1.884 0 1 0 87.933 23.909Z" />
  <path fill="#fff" d="M77.599 30.292A1.796 1.796 0 1 0 77.599 33.884A1.796 1.796 0 1 0 77.599 30.292Z" />
  <path fill="#472b29" d="M56.199,56.371c-0.051-0.063-0.124-0.103-0.206-0.111c-0.082-0.01-0.161,0.014-0.224,0.064 c-1.164,0.916-3.108,1.442-5.332,1.442c-2.224,0-4.168-0.525-5.332-1.441c-0.126-0.102-0.33-0.078-0.43,0.046 c-0.106,0.129-0.086,0.32,0.044,0.424c1.38,1.114,3.518,1.779,5.717,1.779c2.2,0,4.337-0.665,5.717-1.779 C56.285,56.69,56.305,56.5,56.199,56.371z" opacity=".49" />
  <path fill="#fff" d="M60.443,23.32c-7.981-0.927-11.958-1.006-19.846-0.083c-1.468,0.172-2.526,1.439-2.355,2.854 l-0.325,13.703c8.181,0.948,16.404,0.938,24.667,0l-0.269-14.165C62.451,24.496,61.618,23.456,60.443,23.32z" />
  <path fill="#472b29" d="M50.19,40.997c-4.14,0-8.259-0.236-12.331-0.707c-0.257-0.03-0.448-0.251-0.442-0.509l0.325-13.703 c-0.092-0.721,0.13-1.506,0.63-2.141c0.528-0.671,1.298-1.096,2.166-1.198c7.714-0.9,11.631-0.884,19.963,0.084l0,0 c0.709,0.082,1.341,0.433,1.777,0.987c0.425,0.538,0.614,1.205,0.532,1.877l0.272,14.096c0.005,0.258-0.188,0.478-0.443,0.507 C58.49,40.761,54.33,40.997,50.19,40.997z M38.428,39.348c7.774,0.866,15.726,0.865,23.646-0.001l-0.26-13.709 c0.053-0.477-0.063-0.881-0.321-1.208c-0.271-0.344-0.664-0.562-1.107-0.612l0,0c-8.238-0.959-12.111-0.976-19.731-0.084 c-0.603,0.07-1.134,0.362-1.497,0.823c-0.333,0.424-0.482,0.947-0.419,1.474L38.428,39.348z" />
  <g>
    <path fill="#f37e98" d="M54.5 31.5L51.5 31.5 51.5 28.5 48.5 28.5 48.5 31.5 45.5 31.5 45.5 34.5 48.5 34.5 48.5 37.5 51.5 37.5 51.5 34.5 54.5 34.5z" />
    <path fill="#472b29" d="M51.5,37.75h-3c-0.138,0-0.25-0.112-0.25-0.25v-2.75H45.5c-0.138,0-0.25-0.112-0.25-0.25v-3 c0-0.138,0.112-0.25,0.25-0.25h2.75V28.5c0-0.138,0.112-0.25,0.25-0.25h3c0.138,0,0.25,0.112,0.25,0.25v2.75h2.75 c0.138,0,0.25,0.112,0.25,0.25v3c0,0.138-0.112,0.25-0.25,0.25h-2.75v2.75C51.75,37.638,51.638,37.75,51.5,37.75z M48.75,37.25h2.5 V34.5c0-0.138,0.112-0.25,0.25-0.25h2.75v-2.5H51.5c-0.138,0-0.25-0.112-0.25-0.25v-2.75h-2.5v2.75c0,0.138-0.112,0.25-0.25,0.25 h-2.75v2.5h2.75c0.138,0,0.25,0.112,0.25,0.25V37.25z" />
  </g>
  <g>
    <path fill="#fff" d="M54.5 82.625L54.5 80 62 80 62 83.5" />
    <path fill="#472b29" d="M62,84c-0.276,0-0.5-0.224-0.5-0.5v-3H55v2.125c0,0.276-0.224,0.5-0.5,0.5s-0.5-0.224-0.5-0.5V80 c0-0.276,0.224-0.5,0.5-0.5H62c0.276,0,0.5,0.224,0.5,0.5v3.5C62.5,83.776,62.276,84,62,84z" />
  </g>
  <g>
    <path fill="#472b29" d="M54.5,87c-0.276,0-0.5-0.224-0.5-0.5v-2c0-0.276,0.224-0.5,0.5-0.5s0.5,0.224,0.5,0.5v2 C55,86.776,54.776,87,54.5,87z" />
  </g>
</svg>